solid MULTIMODALZERO_V9_CLOSER
facet normal 3.548529983070687e-06 -0.9569403357261697 0.29028467725268187
  outer loop
    vertex 209.75571721295614 73.25815324598658 4.99797659773772
    vertex 206.7557406913883 73.0112027045303 4.183926435742453
    vertex 209.75571721295614 73.01120918800025 4.183911136234497
  endloop
endfacet
facet normal 3.548529983070687e-06 -0.9569403357261697 0.29028467725268187
  outer loop
    vertex 206.7557406913883 73.0112027045303 4.183926435742453
    vertex 209.75571721295614 73.25815324598658 4.99797659773772
    vertex 206.7557406913883 73.25814676251663 4.997991897245677
  endloop
endfacet
facet normal -2.7036440412432723e-06 0.7040026194228961 0.7101973752685878
  outer loop
    vertex 211.75572001404186 107.30674227031612 12.60815718024829
    vertex 209.7557200140534 107.90699598882088 12.013131611090214
    vertex 209.7557200140534 107.30673551872133 12.60815625916963
  endloop
endfacet
facet normal -2.7036440412432723e-06 0.7040026194228961 0.7101973752685878
  outer loop
    vertex 209.7557200140534 107.90699598882088 12.013131611090214
    vertex 211.75572001404186 107.30674227031612 12.60815718024829
    vertex 211.75572001404186 107.90700274041572 12.013132532168873
  endloop
endfacet
facet normal 1.6828750961871918e-06 7.971539828992013e-06 0.9999999999668112
  outer loop
    vertex 209.75571469510058 98.8440619773112 12.841346754596277
    vertex 206.75571721292525 106.07360700765551 12.841294172611171
    vertex 206.75571469511027 98.84406768215302 12.841351803176089
  endloop
endfacet
facet normal 1.6828750961871918e-06 7.971539828992013e-06 0.9999999999668112
  outer loop
    vertex 206.75571721292525 106.07360700765551 12.841294172611171
    vertex 209.75571469510058 98.8440619773112 12.841346754596277
    vertex 209.75571721291556 106.07360130281369 12.84128912403136
  endloop
endfacet
facet normal 2.326879704509511e-06 -0.9994645874736613 0.03271908282164873
  outer loop
    vertex 209.75571721295614 72.59607892821987 1.6695042333069805
    vertex 206.7557406913883 72.56823844688958 0.8192788539772919
    vertex 209.75571721295614 72.56824493035953 0.8192635544693351
  endloop
endfacet
facet normal 2.326879704509511e-06 -0.9994645874736613 0.03271908282164873
  outer loop
    vertex 206.7557406913883 72.56823844688958 0.8192788539772919
    vertex 209.75571721295614 72.59607892821987 1.6695042333069805
    vertex 206.7557406913883 72.59607244474992 1.6695195328149373
  endloop
endfacet
facet normal 2.392660417892749e-06 0.9275784701202408 0.37362840063848063
  outer loop
    vertex 206.75571721292525 109.31726940198185 7.95831543092672
    vertex 209.75571721291556 109.00147210564788 8.74230185840322
    vertex 209.75571721291556 109.31726369714002 7.958310382346907
  endloop
endfacet
facet normal 2.392660417892749e-06 0.9275784701202408 0.37362840063848063
  outer loop
    vertex 209.75571721291556 109.00147210564788 8.74230185840322
    vertex 206.75571721292525 109.31726940198185 7.95831543092672
    vertex 206.75571721292525 109.0014778104897 8.742306906983032
  endloop
endfacet
facet normal 2.255700053406256e-06 0.9695775286544993 0.24478442745229
  outer loop
    vertex 206.75571721292525 109.78610575394562 6.335239100305405
    vertex 209.75571721291556 109.57920768282347 7.154723229543709
    vertex 209.75571721291556 109.7861000491038 6.335234051725582
  endloop
endfacet
facet normal 2.255700053406256e-06 0.9695775286544993 0.24478442745229
  outer loop
    vertex 209.75571721291556 109.57920768282347 7.154723229543709
    vertex 206.75571721292525 109.78610575394562 6.335239100305405
    vertex 206.75571721292525 109.57921338766529 7.154728278123533
  endloop
endfacet
facet normal 2.554977473708962e-07 -0.7080933704973204 0.7061188134143428
  outer loop
    vertex 211.75574125894389 96.86610721172893 13.319306422569088
    vertex 206.75564863287923 90.78331567493342 7.219508437474812
    vertex 211.73819863286317 90.78330620004691 7.219500052541027
  endloop
endfacet
facet normal 2.554977473708962e-07 -0.7080933704973204 0.7061188134143428
  outer loop
    vertex 206.75564863287923 90.78331567493342 7.219508437474812
    vertex 211.75574125894389 96.86610721172893 13.319306422569088
    vertex 209.75574125895545 96.86610046013409 13.31930550149043
  endloop
endfacet
facet normal 2.554977473708962e-07 -0.7080933704973204 0.7061188134143428
  outer loop
    vertex 206.75574125896514 96.86610616497592 13.319310550070242
    vertex 206.75564863287923 90.78331567493342 7.219508437474812
    vertex 209.75574125895545 96.86610046013409 13.31930550149043
  endloop
endfacet
facet normal 2.077314454323482e-06 0.9937705961103748 0.11144506405451654
  outer loop
    vertex 206.75571721292525 110.03118915631505 4.663677427548782
    vertex 209.75571721291556 109.93698982464626 5.503609593557824
    vertex 209.75571721291556 110.03118345147323 4.66367237896897
  endloop
endfacet
facet normal 2.077314454323482e-06 0.9937705961103748 0.11144506405451654
  outer loop
    vertex 209.75571721291556 109.93698982464626 5.503609593557824
    vertex 206.75571721292525 110.03118915631505 4.663677427548782
    vertex 206.75571721292525 109.93699552948809 5.503614642137648
  endloop
endfacet
facet normal 3.819086674865486e-06 -0.935905926750484 0.3522500479187083
  outer loop
    vertex 209.75571721295614 73.55781100636946 5.7941481684619625
    vertex 206.7557406913883 73.25814676251663 4.997991897245677
    vertex 209.75571721295614 73.25815324598658 4.99797659773772
  endloop
endfacet
facet normal 3.819086674865486e-06 -0.935905926750484 0.3522500479187083
  outer loop
    vertex 206.7557406913883 73.25814676251663 4.997991897245677
    vertex 209.75571721295614 73.55781100636946 5.7941481684619625
    vertex 206.7557406913883 73.55780452289952 5.794163467969919
  endloop
endfacet
facet normal 2.963054183088111e-06 -0.986643332080535 0.16289547339395194
  outer loop
    vertex 209.75571721295614 72.81803628477847 3.355437737236073
    vertex 206.7557406913883 72.67945524887904 2.5161193505344603
    vertex 209.75571721295614 72.67946173234898 2.516104051026504
  endloop
endfacet
facet normal 2.963054183088111e-06 -0.986643332080535 0.16289547339395194
  outer loop
    vertex 206.7557406913883 72.67945524887904 2.5161193505344603
    vertex 209.75571721295614 72.81803628477847 3.355437737236073
    vertex 206.7557406913883 72.81802980130853 3.35545303674403
  endloop
endfacet
facet normal 4.7272667320323055e-06 -0.8128466845825325 0.5824776968612947
  outer loop
    vertex 209.75571721295614 75.25465150292663 8.73316212083937
    vertex 206.7557406913883 74.75913348398232 8.041691873427498
    vertex 209.75571721295614 74.75913996745227 8.041676573919542
  endloop
endfacet
facet normal 4.7272667320323055e-06 -0.8128466845825325 0.5824776968612947
  outer loop
    vertex 206.7557406913883 74.75913348398232 8.041691873427498
    vertex 209.75571721295614 75.25465150292663 8.73316212083937
    vertex 206.7557406913883 75.25464501945669 8.733177420347328
  endloop
endfacet
facet normal 1.6828750967157247e-06 7.971817768958362e-06 0.9999999999668092
  outer loop
    vertex 209.7557022365408 97.34405001909965 12.841358712439225
    vertex 206.75571469511027 98.84406768215302 12.841351803176089
    vertex 206.75570223655052 97.34405572394148 12.841363761019037
  endloop
endfacet
facet normal 1.6828750967157247e-06 7.971817768958362e-06 0.9999999999668092
  outer loop
    vertex 206.75571469511027 98.84406768215302 12.841351803176089
    vertex 209.7557022365408 97.34405001909965 12.841358712439225
    vertex 209.75571469510058 98.8440619773112 12.841346754596277
  endloop
endfacet
facet normal -3.1602792956398796e-06 0.868544720210574 0.49561080394231577
  outer loop
    vertex 209.7557200140534 109.44752724400256 10.004057225358313
    vertex 211.75572001404186 109.86642539751043 9.269962132832896
    vertex 209.7557200140534 109.86641864591559 9.269961211754227
  endloop
endfacet
facet normal -3.1602792956398796e-06 0.868544720210574 0.49561080394231577
  outer loop
    vertex 211.75572001404186 109.86642539751043 9.269962132832896
    vertex 209.7557200140534 109.44752724400256 10.004057225358313
    vertex 211.75572001404186 109.4475339955974 10.004058146436982
  endloop
endfacet
facet normal 2.5330514640619177e-06 0.7935604154674444 0.6084914683023261
  outer loop
    vertex 206.75571721292525 107.7467290199924 10.94122070891831
    vertex 209.75571721291556 107.23242491370068 11.611934765517539
    vertex 209.75571721291556 107.74672331515058 10.941215660338498
  endloop
endfacet
facet normal 2.5330514640619177e-06 0.7935604154674444 0.6084914683023261
  outer loop
    vertex 209.75571721291556 107.23242491370068 11.611934765517539
    vertex 206.75571721292525 107.7467290199924 10.94122070891831
    vertex 206.75571721292525 107.23243061854251 11.61193981409735
  endloop
endfacet
facet normal -3.406093050031023e-06 0.9937705961067543 0.11144506405411127
  outer loop
    vertex 209.7557200140534 111.17012404055386 5.270476728696097
    vertex 211.75572001404186 111.26432441897566 4.430540435185912
    vertex 209.7557200140534 111.26431766738082 4.430539514107243
  endloop
endfacet
facet normal -3.406093050031023e-06 0.9937705961067543 0.11144506405411127
  outer loop
    vertex 211.75572001404186 111.26432441897566 4.430540435185912
    vertex 209.7557200140534 111.17012404055386 5.270476728696097
    vertex 211.75572001404186 111.1701307921487 5.270477649774766
  endloop
endfacet
facet normal 5.06359884283985e-06 -0.7298640726884855 0.6835923020141005
  outer loop
    vertex 209.75571721295614 76.37585676976548 10.011651697415543
    vertex 206.7557406913883 75.79432094528339 9.39077443864215
    vertex 209.75571721295614 75.79432742875333 9.390759139134193
  endloop
endfacet
facet normal 5.06359884283985e-06 -0.7298640726884855 0.6835923020141005
  outer loop
    vertex 206.7557406913883 75.79432094528339 9.39077443864215
    vertex 209.75571721295614 76.37585676976548 10.011651697415543
    vertex 206.7557406913883 76.37585028629553 10.0116669969235
  endloop
endfacet
facet normal 3.262777941101198e-06 -0.9738769792721754 0.2270762630330552
  outer loop
    vertex 209.75571721295614 73.01120918800025 4.183911136234497
    vertex 206.7557406913883 72.81802980130853 3.35545303674403
    vertex 209.75571721295614 72.81803628477847 3.355437737236073
  endloop
endfacet
facet normal 3.262777941101198e-06 -0.9738769792721754 0.2270762630330552
  outer loop
    vertex 206.7557406913883 72.81802980130853 3.35545303674403
    vertex 209.75571721295614 73.01120918800025 4.183911136234497
    vertex 206.7557406913883 73.0112027045303 4.183926435742453
  endloop
endfacet
facet normal 2.6506421721589895e-06 -0.9951847266686997 0.09801714032922822
  outer loop
    vertex 209.75571721295614 72.67946173234898 2.516104051026504
    vertex 206.7557406913883 72.59607244474992 1.6695195328149373
    vertex 209.75571721295614 72.59607892821987 1.6695042333069805
  endloop
endfacet
facet normal 2.6506421721589895e-06 -0.9951847266686997 0.09801714032922822
  outer loop
    vertex 206.7557406913883 72.59607244474992 1.6695195328149373
    vertex 209.75571721295614 72.67946173234898 2.516104051026504
    vertex 206.7557406913883 72.67945524887904 2.5161193505344603
  endloop
endfacet
facet normal -2.9591334609606963e-06 0.7935604154664313 0.6084914683017247
  outer loop
    vertex 209.7557200140534 108.46555912960815 11.37880190065579
    vertex 211.75572001404186 108.97986428265303 10.70808371655544
    vertex 209.7557200140534 108.97985753105819 10.70808279547677
  endloop
endfacet
facet normal -2.9591334609606963e-06 0.7935604154664313 0.6084914683017247
  outer loop
    vertex 211.75572001404186 108.97986428265303 10.70808371655544
    vertex 209.7557200140534 108.46555912960815 11.37880190065579
    vertex 211.75572001404186 108.46556588120299 11.37880282173447
  endloop
endfacet
facet normal 4.905936774650379e-06 -0.773010453353452 0.6343932841559898
  outer loop
    vertex 209.75571721295614 75.79432742875333 9.390759139134193
    vertex 206.7557406913883 75.25464501945669 8.733177420347328
    vertex 209.75571721295614 75.25465150292663 8.73316212083937
  endloop
endfacet
facet normal 4.905936774650379e-06 -0.773010453353452 0.6343932841559898
  outer loop
    vertex 206.7557406913883 75.25464501945669 8.733177420347328
    vertex 209.75571721295614 75.79432742875333 9.390759139134193
    vertex 206.7557406913883 75.79432094528339 9.39077443864215
  endloop
endfacet
facet normal 1.9735750757402203e-06 0.9990382129109824 0.04384802321354837
  outer loop
    vertex 206.75571721296578 110.06825047236862 3.8192683015553586
    vertex 209.75571721291556 110.03118345147323 4.66367237896897
    vertex 209.75571721295606 110.06824476752679 3.819263252975546
  endloop
endfacet
facet normal 1.9735750757402203e-06 0.9990382129109824 0.04384802321354837
  outer loop
    vertex 209.75571721291556 110.03118345147323 4.66367237896897
    vertex 206.75571721296578 110.06825047236862 3.8192683015553586
    vertex 206.75571721292525 110.03118915631505 4.663677427548782
  endloop
endfacet
facet normal -2.703644033271913e-06 0.7040026194229292 0.710197375268555
  outer loop
    vertex 211.75572001404186 106.45164190417368 13.455798862120387
    vertex 209.7557200140534 107.30673551872133 12.60815625916963
    vertex 209.7557200140534 106.45163515257889 13.455797941041729
  endloop
endfacet
facet normal -2.703644033271913e-06 0.7040026194229292 0.710197375268555
  outer loop
    vertex 209.7557200140534 107.30673551872133 12.60815625916963
    vertex 211.75572001404186 106.45164190417368 13.455798862120387
    vertex 211.75572001404186 107.30674227031612 12.60815718024829
  endloop
endfacet
facet normal -3.3927443609909596e-06 0.9990382129080551 0.04384802319340265
  outer loop
    vertex 209.75571861351918 111.2908400868565 3.8262497739278474
    vertex 211.75572001408236 111.30138573502914 3.586131309192477
    vertex 209.75572001409392 111.3013789834343 3.586130388113807
  endloop
endfacet
facet normal -3.3927443609909596e-06 0.9990382129080551 0.04384802319340265
  outer loop
    vertex 211.75572001408236 111.30138573502914 3.586131309192477
    vertex 209.75571861351918 111.2908400868565 3.8262497739278474
    vertex 211.7557186135076 111.29084683845134 3.8262506950065176
  endloop
endfacet
facet normal -2.061993472105177e-06 -3.3910250838748163e-07 -0.9999999999978166
  outer loop
    vertex 211.73823292290652 90.78330620004691 0.8192600716692627
    vertex 206.7557406913883 72.56823844688958 0.8192788539772919
    vertex 206.7556829229226 90.78331567493342 0.8192684566030541
  endloop
endfacet
facet normal -2.061993472105177e-06 -3.3910250838748163e-07 -0.9999999999978166
  outer loop
    vertex 206.7557406913883 72.56823844688958 0.8192788539772919
    vertex 211.73823292290652 90.78330620004691 0.8192600716692627
    vertex 209.75571721295614 72.56824493035953 0.8192635544693351
  endloop
endfacet
facet normal -2.061993472105177e-06 -3.3910250838748163e-07 -0.9999999999978166
  outer loop
    vertex 209.75571721295614 72.56824493035953 0.8192635544693351
    vertex 211.73823292290652 90.78330620004691 0.8192600716692627
    vertex 211.75571721282395 72.5682223255678 0.8192678290533982
  endloop
endfacet
facet normal -2.8379109203242406e-06 0.7505063515686498 0.6608632356600422
  outer loop
    vertex 209.7557200140534 107.90699598882088 12.013131611090214
    vertex 211.75572001404186 108.46556588120299 11.37880282173447
    vertex 209.7557200140534 108.46555912960815 11.37880190065579
  endloop
endfacet
facet normal -2.8379109203242406e-06 0.7505063515686498 0.6608632356600422
  outer loop
    vertex 211.75572001404186 108.46556588120299 11.37880282173447
    vertex 209.7557200140534 107.90699598882088 12.013131611090214
    vertex 211.75572001404186 107.90700274041572 12.013132532168873
  endloop
endfacet
facet normal 2.4447890474871444e-06 0.9001302991186478 0.43562075777285536
  outer loop
    vertex 206.75571721292525 109.0014778104897 8.742306906983032
    vertex 209.75571721291556 108.63328443000799 9.503094076615966
    vertex 209.75571721291556 109.00147210564788 8.74230185840322
  endloop
endfacet
facet normal 2.4447890474871444e-06 0.9001302991186478 0.43562075777285536
  outer loop
    vertex 209.75571721291556 108.63328443000799 9.503094076615966
    vertex 206.75571721292525 109.0014778104897 8.742306906983032
    vertex 206.75571721292525 108.63329013484982 9.503099125195778
  endloop
endfacet
facet normal 2.5151462674495103e-06 0.8329669150750632 0.5533227976362505
  outer loop
    vertex 206.75571721292525 108.21439873293687 10.237195138799864
    vertex 209.75571721291556 107.74672331515058 10.941215660338498
    vertex 209.75571721291556 108.21439302809505 10.237190090220052
  endloop
endfacet
facet normal 2.5151462674495103e-06 0.8329669150750632 0.5533227976362505
  outer loop
    vertex 209.75571721291556 107.74672331515058 10.941215660338498
    vertex 206.75571721292525 108.21439873293687 10.237195138799864
    vertex 206.75571721292525 107.7467290199924 10.94122070891831
  endloop
endfacet
facet normal 2.539313607520618e-06 0.7505063515692258 0.660863235660603
  outer loop
    vertex 206.75571721292525 107.23243061854251 11.61193981409735
    vertex 209.75571721291556 106.67386177291337 12.246264475951943
    vertex 209.75571721291556 107.23242491370068 11.611934765517539
  endloop
endfacet
facet normal 2.539313607520618e-06 0.7505063515692258 0.660863235660603
  outer loop
    vertex 209.75571721291556 106.67386177291337 12.246264475951943
    vertex 206.75571721292525 107.23243061854251 11.61193981409735
    vertex 206.75571721292525 106.6738674777552 12.246269524531778
  endloop
endfacet
facet normal 4.310049776775807e-06 -0.8819212643401926 0.47139673682156497
  outer loop
    vertex 209.75571721295614 74.30991467879743 7.319263545645389
    vertex 206.7557406913883 73.90889280514469 6.5690318190188455
    vertex 209.75571721295614 73.90889928861463 6.569016519510889
  endloop
endfacet
facet normal 4.310049776775807e-06 -0.8819212643401926 0.47139673682156497
  outer loop
    vertex 206.7557406913883 73.90889280514469 6.5690318190188455
    vertex 209.75571721295614 74.30991467879743 7.319263545645389
    vertex 206.7557406913883 74.30990819532748 7.319278845153346
  endloop
endfacet
facet normal -0.9999999999771074 -3.4563779511654025e-06 5.817111339330563e-06
  outer loop
    vertex 206.7557406913883 72.59607244474992 1.6695195328149373
    vertex 206.7556829229226 90.78331567493342 0.8192684566030541
    vertex 206.7557406913883 72.56823844688958 0.8192788539772919
  endloop
endfacet
facet normal -0.9999999999771074 -3.4563779511654025e-06 5.817111339330563e-06
  outer loop
    vertex 206.7556829229226 90.78331567493342 0.8192684566030541
    vertex 206.7557406913883 72.59607244474992 1.6695195328149373
    vertex 206.7557406913883 72.67945524887904 2.5161193505344603
  endloop
endfacet
facet normal -0.9999999999771074 -3.4563779511654025e-06 5.817111339330563e-06
  outer loop
    vertex 206.7556829229226 90.78331567493342 0.8192684566030541
    vertex 206.7557406913883 72.67945524887904 2.5161193505344603
    vertex 206.7557406913883 72.81802980130853 3.35545303674403
  endloop
endfacet
facet normal -0.9999999999771074 -3.4563779511654025e-06 5.817111339330563e-06
  outer loop
    vertex 206.7556829229226 90.78331567493342 0.8192684566030541
    vertex 206.7557406913883 72.81802980130853 3.35545303674403
    vertex 206.7557406913883 73.0112027045303 4.183926435742453
  endloop
endfacet
facet normal -0.9999999999771074 -3.4563779511654025e-06 5.817111339330563e-06
  outer loop
    vertex 206.7556829229226 90.78331567493342 0.8192684566030541
    vertex 206.7557406913883 73.0112027045303 4.183926435742453
    vertex 206.7557406913883 73.25814676251663 4.997991897245677
  endloop
endfacet
facet normal -0.9999999999771074 -3.4563779511654025e-06 5.817111339330563e-06
  outer loop
    vertex 206.7556829229226 90.78331567493342 0.8192684566030541
    vertex 206.7557406913883 73.25814676251663 4.997991897245677
    vertex 206.7557406913883 73.55780452289952 5.794163467969919
  endloop
endfacet
facet normal -0.9999999999771074 -3.4563779511654025e-06 5.817111339330563e-06
  outer loop
    vertex 206.7556829229226 90.78331567493342 0.8192684566030541
    vertex 206.7557406913883 73.55780452289952 5.794163467969919
    vertex 206.7557406913883 73.90889280514469 6.5690318190188455
  endloop
endfacet
facet normal -0.9999999999771074 -3.4563779511654025e-06 5.817111339330563e-06
  outer loop
    vertex 206.7556829229226 90.78331567493342 0.8192684566030541
    vertex 206.7557406913883 73.90889280514469 6.5690318190188455
    vertex 206.7557406913883 74.30990819532748 7.319278845153346
  endloop
endfacet
facet normal -0.9999999999771074 -3.4563779511654025e-06 5.817111339330563e-06
  outer loop
    vertex 206.7556829229226 90.78331567493342 0.8192684566030541
    vertex 206.7557406913883 74.30990819532748 7.319278845153346
    vertex 206.7557406913883 74.75913348398232 8.041691873427498
  endloop
endfacet
facet normal -0.9999999999771074 -3.4563779511654025e-06 5.817111339330563e-06
  outer loop
    vertex 206.7556829229226 90.78331567493342 0.8192684566030541
    vertex 206.7557406913883 74.75913348398232 8.041691873427498
    vertex 206.7557406913883 75.25464501945669 8.733177420347328
  endloop
endfacet
facet normal -0.9999999999771074 -3.4563779511654025e-06 5.817111339330563e-06
  outer loop
    vertex 206.7556829229226 90.78331567493342 0.8192684566030541
    vertex 206.7557406913883 75.25464501945669 8.733177420347328
    vertex 206.7557406913883 75.79432094528339 9.39077443864215
  endloop
endfacet
facet normal -0.9999999999771074 -3.4563779511654025e-06 5.817111339330563e-06
  outer loop
    vertex 206.7556829229226 90.78331567493342 0.8192684566030541
    vertex 206.7557406913883 75.79432094528339 9.39077443864215
    vertex 206.7557406913883 76.37585028629553 10.0116669969235
  endloop
endfacet
facet normal -0.9999999999771074 -3.4563779511654025e-06 5.817111339330563e-06
  outer loop
    vertex 206.7556829229226 90.78331567493342 0.8192684566030541
    vertex 206.7557406913883 76.37585028629553 10.0116669969235
    vertex 206.75584094280518 82.18350973806827 15.819320799140577
  endloop
endfacet
facet normal -0.9999999999771074 -3.4563779511654025e-06 5.817111339330563e-06
  outer loop
    vertex 206.7556829229226 90.78331567493342 0.8192684566030541
    vertex 206.75584094280518 82.18350973806827 15.819320799140577
    vertex 206.75564863287923 90.78331567493342 7.219508437474812
  endloop
endfacet
facet normal 0.9999995651449413 -0.0007078649945040621 -0.0006071549045778263
  outer loop
    vertex 211.75571721294452 110.06825151912163 0.8192641740542214
    vertex 211.73819863286317 90.78330620004691 7.219500052541027
    vertex 211.73823292290652 90.78330620004691 0.8192600716692627
  endloop
endfacet
facet normal 0.9999995651449413 -0.0007078649945040621 -0.0006071549045778263
  outer loop
    vertex 211.73819863286317 90.78330620004691 7.219500052541027
    vertex 211.75571721294452 110.06825151912163 0.8192641740542214
    vertex 211.75570223652926 97.3440567706945 12.841359633517884
  endloop
endfacet
facet normal 0.9999995651449413 -0.0007078649945040621 -0.0006071549045778263
  outer loop
    vertex 211.73819863286317 90.78330620004691 7.219500052541027
    vertex 211.75570223652926 97.3440567706945 12.841359633517884
    vertex 211.75574125894389 96.86610721172893 13.319306422569088
  endloop
endfacet
facet normal 0.9999995651449413 -0.0007078649945040621 -0.0006071549045778263
  outer loop
    vertex 211.75570223652926 97.3440567706945 12.841359633517884
    vertex 211.75571721294452 110.06825151912163 0.8192641740542214
    vertex 211.755717212904 106.07360805440848 12.841290045110018
  endloop
endfacet
facet normal 0.9999995651449413 -0.0007078649945040621 -0.0006071549045778263
  outer loop
    vertex 211.755717212904 106.07360805440848 12.841290045110018
    vertex 211.75571721294452 110.06825151912163 0.8192641740542214
    vertex 211.755717212904 106.67386852450817 12.246265397030623
  endloop
endfacet
facet normal 0.9999995651449413 -0.0007078649945040621 -0.0006071549045778263
  outer loop
    vertex 211.755717212904 106.67386852450817 12.246265397030623
    vertex 211.75571721294452 110.06825151912163 0.8192641740542214
    vertex 211.755717212904 107.23243166529548 11.611935686596198
  endloop
endfacet
facet normal 0.9999995651449413 -0.0007078649945040621 -0.0006071549045778263
  outer loop
    vertex 211.755717212904 107.23243166529548 11.611935686596198
    vertex 211.75571721294452 110.06825151912163 0.8192641740542214
    vertex 211.755717212904 107.74673006674541 10.941216581417178
  endloop
endfacet
facet normal 0.9999995651449413 -0.0007078649945040621 -0.0006071549045778263
  outer loop
    vertex 211.755717212904 107.74673006674541 10.941216581417178
    vertex 211.75571721294452 110.06825151912163 0.8192641740542214
    vertex 211.755717212904 108.21439977968988 10.237191011298721
  endloop
endfacet
facet normal 0.9999995651449413 -0.0007078649945040621 -0.0006071549045778263
  outer loop
    vertex 211.755717212904 108.21439977968988 10.237191011298721
    vertex 211.75571721294452 110.06825151912163 0.8192641740542214
    vertex 211.755717212904 108.63329118160283 9.503094997694635
  endloop
endfacet
facet normal 0.9999995651449413 -0.0007078649945040621 -0.0006071549045778263
  outer loop
    vertex 211.755717212904 108.63329118160283 9.503094997694635
    vertex 211.75571721294452 110.06825151912163 0.8192641740542214
    vertex 211.755717212904 109.00147885724272 8.74230277948189
  endloop
endfacet
facet normal 0.9999995651449413 -0.0007078649945040621 -0.0006071549045778263
  outer loop
    vertex 211.755717212904 109.00147885724272 8.74230277948189
    vertex 211.75571721294452 110.06825151912163 0.8192641740542214
    vertex 211.755717212904 109.31727044873486 7.958311303425577
  endloop
endfacet
facet normal 0.9999995651449413 -0.0007078649945040621 -0.0006071549045778263
  outer loop
    vertex 211.755717212904 109.31727044873486 7.958311303425577
    vertex 211.75571721294452 110.06825151912163 0.8192641740542214
    vertex 211.755717212904 109.5792144344183 7.154724150622379
  endloop
endfacet
facet normal 0.9999995651449413 -0.0007078649945040621 -0.0006071549045778263
  outer loop
    vertex 211.755717212904 109.5792144344183 7.154724150622379
    vertex 211.75571721294452 110.06825151912163 0.8192641740542214
    vertex 211.755717212904 109.78610680069863 6.335234972804251
  endloop
endfacet
facet normal 0.9999995651449413 -0.0007078649945040621 -0.0006071549045778263
  outer loop
    vertex 211.755717212904 109.78610680069863 6.335234972804251
    vertex 211.75571721294452 110.06825151912163 0.8192641740542214
    vertex 211.755717212904 109.9369965762411 5.503610514636494
  endloop
endfacet
facet normal 0.9999995651449413 -0.0007078649945040621 -0.0006071549045778263
  outer loop
    vertex 211.755717212904 109.9369965762411 5.503610514636494
    vertex 211.75571721294452 110.06825151912163 0.8192641740542214
    vertex 211.755717212904 110.03119020306806 4.66367330004764
  endloop
endfacet
facet normal 0.9999995651449413 -0.0007078649945040621 -0.0006071549045778263
  outer loop
    vertex 211.755717212904 110.03119020306806 4.66367330004764
    vertex 211.75571721294452 110.06825151912163 0.8192641740542214
    vertex 211.75571721294452 110.06825151912163 3.8192641740542164
  endloop
endfacet
facet normal 4.5283538075125205e-06 -0.8492021815178407 0.528067850645004
  outer loop
    vertex 209.75571721295614 74.75913996745227 8.041676573919542
    vertex 206.7557406913883 74.30990819532748 7.319278845153346
    vertex 209.75571721295614 74.30991467879743 7.319263545645389
  endloop
endfacet
facet normal 4.5283538075125205e-06 -0.8492021815178407 0.528067850645004
  outer loop
    vertex 206.7557406913883 74.30990819532748 7.319278845153346
    vertex 209.75571721295614 74.75913996745227 8.041676573919542
    vertex 206.7557406913883 74.75913348398232 8.041691873427498
  endloop
endfacet
facet normal 0.9999993897589345 0.0009648051852403878 -0.0005381753555776871
  outer loop
    vertex 211.73823292290652 90.78330620004691 0.8192600716692627
    vertex 211.75571721282395 72.59605632342814 1.6695085078910437
    vertex 211.75571721282395 72.5682223255678 0.8192678290533982
  endloop
endfacet
facet normal 0.9999993897589345 0.0009648051852403878 -0.0005381753555776871
  outer loop
    vertex 211.75571721282395 72.59605632342814 1.6695085078910437
    vertex 211.73823292290652 90.78330620004691 0.8192600716692627
    vertex 211.75571721282395 72.67943912755726 2.5161083256105554
  endloop
endfacet
facet normal 0.9999993897589345 0.0009648051852403878 -0.0005381753555776871
  outer loop
    vertex 211.75571721282395 72.67943912755726 2.5161083256105554
    vertex 211.73823292290652 90.78330620004691 0.8192600716692627
    vertex 211.75571721282395 72.81801367998675 3.355442011820136
  endloop
endfacet
facet normal 0.9999993897589345 0.0009648051852403878 -0.0005381753555776871
  outer loop
    vertex 211.75571721282395 72.81801367998675 3.355442011820136
    vertex 211.73823292290652 90.78330620004691 0.8192600716692627
    vertex 211.75571721282395 73.01118658320853 4.183915410818548
  endloop
endfacet
facet normal 0.9999993897589345 0.0009648051852403878 -0.0005381753555776871
  outer loop
    vertex 211.75571721282395 73.01118658320853 4.183915410818548
    vertex 211.73823292290652 90.78330620004691 0.8192600716692627
    vertex 211.75571721282395 73.2581306411949 4.997980872321772
  endloop
endfacet
facet normal 0.9999993897589345 0.0009648051852403878 -0.0005381753555776871
  outer loop
    vertex 211.75571721282395 73.2581306411949 4.997980872321772
    vertex 211.73823292290652 90.78330620004691 0.8192600716692627
    vertex 211.75571721282395 73.5577884015778 5.7941524430460145
  endloop
endfacet
facet normal 0.9999993897589345 0.0009648051852403878 -0.0005381753555776871
  outer loop
    vertex 211.75571721282395 73.5577884015778 5.7941524430460145
    vertex 211.73823292290652 90.78330620004691 0.8192600716692627
    vertex 211.75571721282395 73.90887668382295 6.5690207940949525
  endloop
endfacet
facet normal 0.9999993897589345 0.0009648051852403878 -0.0005381753555776871
  outer loop
    vertex 211.75571721282395 73.90887668382295 6.5690207940949525
    vertex 211.73823292290652 90.78330620004691 0.8192600716692627
    vertex 211.75571721282395 74.30989207400575 7.319267820229441
  endloop
endfacet
facet normal 0.9999993897589345 0.0009648051852403878 -0.0005381753555776871
  outer loop
    vertex 211.75571721282395 74.30989207400575 7.319267820229441
    vertex 211.73823292290652 90.78330620004691 0.8192600716692627
    vertex 211.75571721282395 74.7591173626606 8.041680848503594
  endloop
endfacet
facet normal 0.9999993897589345 0.0009648051852403878 -0.0005381753555776871
  outer loop
    vertex 211.75571721282395 74.7591173626606 8.041680848503594
    vertex 211.73823292290652 90.78330620004691 0.8192600716692627
    vertex 211.75571721282395 75.25462889813495 8.733166395423423
  endloop
endfacet
facet normal 0.9999993897589345 0.0009648051852403878 -0.0005381753555776871
  outer loop
    vertex 211.75571721282395 75.25462889813495 8.733166395423423
    vertex 211.73823292290652 90.78330620004691 0.8192600716692627
    vertex 211.75571721282395 75.79430482396165 9.390763413718245
  endloop
endfacet
facet normal 0.9999993897589345 0.0009648051852403878 -0.0005381753555776871
  outer loop
    vertex 211.75571721282395 75.79430482396165 9.390763413718245
    vertex 211.73823292290652 90.78330620004691 0.8192600716692627
    vertex 211.75571721282395 76.3758341649738 10.011655971999595
  endloop
endfacet
facet normal 0.9999993897589345 0.0009648051852403878 -0.0005381753555776871
  outer loop
    vertex 211.75571721282395 76.3758341649738 10.011655971999595
    vertex 211.73823292290652 90.78330620004691 0.8192600716692627
    vertex 211.75581746424083 82.18349361674653 15.819309774216695
  endloop
endfacet
facet normal 0.9999993897589345 0.0009648051852403878 -0.0005381753555776871
  outer loop
    vertex 211.75581746424083 82.18349361674653 15.819309774216695
    vertex 211.73823292290652 90.78330620004691 0.8192600716692627
    vertex 211.73819863286317 90.78330620004691 7.219500052541027
  endloop
endfacet
facet normal 2.1714978494273218e-06 0.9839353694284533 0.17852503685191606
  outer loop
    vertex 206.75571721292525 109.93699552948809 5.503614642137648
    vertex 209.75571721291556 109.7861000491038 6.335234051725582
    vertex 209.75571721291556 109.93698982464626 5.503609593557824
  endloop
endfacet
facet normal 2.1714978494273218e-06 0.9839353694284533 0.17852503685191606
  outer loop
    vertex 209.75571721291556 109.7861000491038 6.335234051725582
    vertex 206.75571721292525 109.93699552948809 5.503614642137648
    vertex 206.75571721292525 109.78610575394562 6.335239100305405
  endloop
endfacet
facet normal 5.134338320855465e-06 -0.7071064372927989 0.7071071250614887
  outer loop
    vertex 209.75571721295614 76.37585676976548 10.011651697415543
    vertex 206.75584094280518 82.18350973806827 15.819320799140577
    vertex 206.7557406913883 76.37585028629553 10.0116669969235
  endloop
endfacet
facet normal 5.134338320855465e-06 -0.7071064372927989 0.7071071250614887
  outer loop
    vertex 206.75584094280518 82.18350973806827 15.819320799140577
    vertex 209.75571721295614 76.37585676976548 10.011651697415543
    vertex 209.75581746437302 82.18351622153821 15.81930549963263
  endloop
endfacet
facet normal 2.4856803156228594e-06 0.868544720212274 0.4956108039431791
  outer loop
    vertex 206.75571721292525 108.63329013484982 9.503099125195778
    vertex 209.75571721291556 108.21439302809505 10.237190090220052
    vertex 209.75571721291556 108.63328443000799 9.503094076615966
  endloop
endfacet
facet normal 2.4856803156228594e-06 0.868544720212274 0.4956108039431791
  outer loop
    vertex 209.75571721291556 108.21439302809505 10.237190090220052
    vertex 206.75571721292525 108.63329013484982 9.503099125195778
    vertex 206.75571721292525 108.21439873293687 10.237195138799864
  endloop
endfacet
facet normal 4.07328945119746e-06 -0.9108638249136188 0.41270702980097235
  outer loop
    vertex 209.75571721295614 73.90889928861463 6.569016519510889
    vertex 206.7557406913883 73.55780452289952 5.794163467969919
    vertex 209.75571721295614 73.55781100636946 5.7941481684619625
  endloop
endfacet
facet normal 4.07328945119746e-06 -0.9108638249136188 0.41270702980097235
  outer loop
    vertex 206.7557406913883 73.55780452289952 5.794163467969919
    vertex 209.75571721295614 73.90889928861463 6.569016519510889
    vertex 206.7557406913883 73.90889280514469 6.5690318190188455
  endloop
endfacet
facet normal -1.219988693822311e-07 -0.09960614616693571 0.9950269421707919
  outer loop
    vertex 209.75574125895545 96.86610046013409 13.31930550149043
    vertex 211.75572777969316 98.22961398133778 13.455798861955024
    vertex 209.75572777970473 98.22960722974292 13.455797940876366
  endloop
endfacet
facet normal -1.219988693822311e-07 -0.09960614616693571 0.9950269421707919
  outer loop
    vertex 211.75572777969316 98.22961398133778 13.455798861955024
    vertex 209.75574125895545 96.86610046013409 13.31930550149043
    vertex 211.75574125894389 96.86610721172893 13.319306422569088
  endloop
endfacet
facet normal -0.9999999999999809 -1.939655334917336e-07 2.5655281118468745e-08
  outer loop
    vertex 209.75572777970473 98.22960722974292 13.455797940876366
    vertex 209.7557022365408 97.34405001909965 12.841358712439225
    vertex 209.75574125895545 96.86610046013409 13.31930550149043
  endloop
endfacet
facet normal -0.9999999999999809 -1.939655334917336e-07 2.5655281118468745e-08
  outer loop
    vertex 209.7557022365408 97.34405001909965 12.841358712439225
    vertex 209.75572777970473 98.22960722974292 13.455797940876366
    vertex 209.75571469510058 98.8440619773112 12.841346754596277
  endloop
endfacet
facet normal -0.9999999999999809 -1.939655334917336e-07 2.5655281118468745e-08
  outer loop
    vertex 209.75571469510058 98.8440619773112 12.841346754596277
    vertex 209.75572777970473 98.22960722974292 13.455797940876366
    vertex 209.7557200140534 106.45163515257889 13.455797941041729
  endloop
endfacet
facet normal -0.9999999999999809 -1.939655334917336e-07 2.5655281118468745e-08
  outer loop
    vertex 209.75571469510058 98.8440619773112 12.841346754596277
    vertex 209.7557200140534 106.45163515257889 13.455797941041729
    vertex 209.75571721291556 106.07360130281369 12.84128912403136
  endloop
endfacet
facet normal -0.9999999999999809 -1.939655334917336e-07 2.5655281118468745e-08
  outer loop
    vertex 209.75571721291556 106.07360130281369 12.84128912403136
    vertex 209.7557200140534 106.45163515257889 13.455797941041729
    vertex 209.75571721291556 106.67386177291337 12.246264475951943
  endloop
endfacet
facet normal -0.9999999999999809 -1.939655334917336e-07 2.5655281118468745e-08
  outer loop
    vertex 209.75571721291556 106.67386177291337 12.246264475951943
    vertex 209.7557200140534 106.45163515257889 13.455797941041729
    vertex 209.7557200140534 107.30673551872133 12.60815625916963
  endloop
endfacet
facet normal -0.9999999999999809 -1.939655334917336e-07 2.5655281118468745e-08
  outer loop
    vertex 209.75571721291556 106.67386177291337 12.246264475951943
    vertex 209.7557200140534 107.30673551872133 12.60815625916963
    vertex 209.75571721291556 107.23242491370068 11.611934765517539
  endloop
endfacet
facet normal -0.9999999999999809 -1.939655334917336e-07 2.5655281118468745e-08
  outer loop
    vertex 209.75571721291556 107.23242491370068 11.611934765517539
    vertex 209.7557200140534 107.30673551872133 12.60815625916963
    vertex 209.75571721291556 107.74672331515058 10.941215660338498
  endloop
endfacet
facet normal -0.9999999999999809 -1.939655334917336e-07 2.5655281118468745e-08
  outer loop
    vertex 209.75571721291556 107.74672331515058 10.941215660338498
    vertex 209.7557200140534 107.30673551872133 12.60815625916963
    vertex 209.7557200140534 107.90699598882088 12.013131611090214
  endloop
endfacet
facet normal -0.9999999999999809 -1.939655334917336e-07 2.5655281118468745e-08
  outer loop
    vertex 209.75571721291556 107.74672331515058 10.941215660338498
    vertex 209.7557200140534 107.90699598882088 12.013131611090214
    vertex 209.75571721291556 108.21439302809505 10.237190090220052
  endloop
endfacet
facet normal -0.9999999999999809 -1.939655334917336e-07 2.5655281118468745e-08
  outer loop
    vertex 209.75571721291556 108.21439302809505 10.237190090220052
    vertex 209.7557200140534 107.90699598882088 12.013131611090214
    vertex 209.7557200140534 108.46555912960815 11.37880190065579
  endloop
endfacet
facet normal -0.9999999999999809 -1.939655334917336e-07 2.5655281118468745e-08
  outer loop
    vertex 209.75571721291556 108.21439302809505 10.237190090220052
    vertex 209.7557200140534 108.46555912960815 11.37880190065579
    vertex 209.75571721291556 108.63328443000799 9.503094076615966
  endloop
endfacet
facet normal -0.9999999999999809 -1.939655334917336e-07 2.5655281118468745e-08
  outer loop
    vertex 209.75571721291556 108.63328443000799 9.503094076615966
    vertex 209.7557200140534 108.46555912960815 11.37880190065579
    vertex 209.7557200140534 108.97985753105819 10.70808279547677
  endloop
endfacet
facet normal -0.9999999999999809 -1.939655334917336e-07 2.5655281118468745e-08
  outer loop
    vertex 209.75571721291556 108.63328443000799 9.503094076615966
    vertex 209.7557200140534 108.97985753105819 10.70808279547677
    vertex 209.75571721291556 109.00147210564788 8.74230185840322
  endloop
endfacet
facet normal -0.9999999999999809 -1.939655334917336e-07 2.5655281118468745e-08
  outer loop
    vertex 209.75571721291556 109.00147210564788 8.74230185840322
    vertex 209.7557200140534 108.97985753105819 10.70808279547677
    vertex 209.7557200140534 109.44752724400256 10.004057225358313
  endloop
endfacet
facet normal -0.9999999999999809 -1.939655334917336e-07 2.5655281118468745e-08
  outer loop
    vertex 209.75571721291556 109.00147210564788 8.74230185840322
    vertex 209.7557200140534 109.44752724400256 10.004057225358313
    vertex 209.75571721291556 109.31726369714002 7.958310382346907
  endloop
endfacet
facet normal -0.9999999999999809 -1.939655334917336e-07 2.5655281118468745e-08
  outer loop
    vertex 209.75571721291556 109.31726369714002 7.958310382346907
    vertex 209.7557200140534 109.44752724400256 10.004057225358313
    vertex 209.75571721291556 109.57920768282347 7.154723229543709
  endloop
endfacet
facet normal -0.9999999999999809 -1.939655334917336e-07 2.5655281118468745e-08
  outer loop
    vertex 209.75571721291556 109.57920768282347 7.154723229543709
    vertex 209.7557200140534 109.44752724400256 10.004057225358313
    vertex 209.7557200140534 109.86641864591559 9.269961211754227
  endloop
endfacet
facet normal -0.9999999999999809 -1.939655334917336e-07 2.5655281118468745e-08
  outer loop
    vertex 209.75571721291556 109.57920768282347 7.154723229543709
    vertex 209.7557200140534 109.86641864591559 9.269961211754227
    vertex 209.75571721291556 109.7861000491038 6.335234051725582
  endloop
endfacet
facet normal -0.9999999999999809 -1.939655334917336e-07 2.5655281118468745e-08
  outer loop
    vertex 209.75571721291556 109.7861000491038 6.335234051725582
    vertex 209.7557200140534 109.86641864591559 9.269961211754227
    vertex 209.75571721291556 109.93698982464626 5.503609593557824
  endloop
endfacet
facet normal -0.9999999999999809 -1.939655334917336e-07 2.5655281118468745e-08
  outer loop
    vertex 209.75571721291556 109.93698982464626 5.503609593557824
    vertex 209.7557200140534 109.86641864591559 9.269961211754227
    vertex 209.7557200140534 110.23460632155539 8.509168993541492
  endloop
endfacet
facet normal -0.9999999999999809 -1.939655334917336e-07 2.5655281118468745e-08
  outer loop
    vertex 209.75571721291556 109.93698982464626 5.503609593557824
    vertex 209.7557200140534 110.23460632155539 8.509168993541492
    vertex 209.75571721291556 110.03118345147323 4.66367237896897
  endloop
endfacet
facet normal -0.9999999999999809 -1.939655334917336e-07 2.5655281118468745e-08
  outer loop
    vertex 209.75571721291556 110.03118345147323 4.66367237896897
    vertex 209.7557200140534 110.23460632155539 8.509168993541492
    vertex 209.75571721295606 110.06824476752679 3.819263252975546
  endloop
endfacet
facet normal -0.9999999999999809 -1.939655334917336e-07 2.5655281118468745e-08
  outer loop
    vertex 209.75571721295606 110.06824476752679 3.819263252975546
    vertex 209.7557200140534 110.23460632155539 8.509168993541492
    vertex 209.75571721295606 110.06824476752679 0.8192632529755514
  endloop
endfacet
facet normal -0.9999999999999809 -1.939655334917336e-07 2.5655281118468745e-08
  outer loop
    vertex 209.75571721295606 110.06824476752679 0.8192632529755514
    vertex 209.7557200140534 110.23460632155539 8.509168993541492
    vertex 209.75571861352495 111.3013789834343 0.8192632529755514
  endloop
endfacet
facet normal -0.9999999999999809 -1.939655334917336e-07 2.5655281118468745e-08
  outer loop
    vertex 209.75571861352495 111.3013789834343 0.8192632529755514
    vertex 209.7557200140534 110.23460632155539 8.509168993541492
    vertex 209.7557200140534 110.55039791304753 7.72517751748518
  endloop
endfacet
facet normal -0.9999999999999809 -1.939655334917336e-07 2.5655281118468745e-08
  outer loop
    vertex 209.75571861352495 111.3013789834343 0.8192632529755514
    vertex 209.7557200140534 110.55039791304753 7.72517751748518
    vertex 209.7557200140534 110.81234189873108 6.921590364681987
  endloop
endfacet
facet normal -0.9999999999999809 -1.939655334917336e-07 2.5655281118468745e-08
  outer loop
    vertex 209.75571861352495 111.3013789834343 0.8192632529755514
    vertex 209.7557200140534 110.81234189873108 6.921590364681987
    vertex 209.7557200140534 111.0192342650113 6.1021011868638535
  endloop
endfacet
facet normal -0.9999999999999809 -1.939655334917336e-07 2.5655281118468745e-08
  outer loop
    vertex 209.75571861352495 111.3013789834343 0.8192632529755514
    vertex 209.7557200140534 111.0192342650113 6.1021011868638535
    vertex 209.7557200140534 111.17012404055386 5.270476728696097
  endloop
endfacet
facet normal -0.9999999999999809 -1.939655334917336e-07 2.5655281118468745e-08
  outer loop
    vertex 209.75571861352495 111.3013789834343 0.8192632529755514
    vertex 209.7557200140534 111.17012404055386 5.270476728696097
    vertex 209.7557200140534 111.26431766738082 4.430539514107243
  endloop
endfacet
facet normal -0.9999999999999809 -1.939655334917336e-07 2.5655281118468745e-08
  outer loop
    vertex 209.75571861352495 111.3013789834343 0.8192632529755514
    vertex 209.7557200140534 111.26431766738082 4.430539514107243
    vertex 209.75571861351918 111.2908400868565 3.8262497739278474
  endloop
endfacet
facet normal -0.9999999999999809 -1.939655334917336e-07 2.5655281118468745e-08
  outer loop
    vertex 209.75571861352495 111.3013789834343 0.8192632529755514
    vertex 209.75571861351918 111.2908400868565 3.8262497739278474
    vertex 209.75572001409392 111.3013789834343 3.586130388113807
  endloop
endfacet
facet normal -1.1457462988028884e-05 -0.9951847266068752 0.09801714032313966
  outer loop
    vertex 211.75571721282395 71.09605632342814 1.6695085078910437
    vertex 209.75571721295614 71.17946173234898 2.516104051026504
    vertex 209.75571721295614 71.09607892821987 1.6695042333069805
  endloop
endfacet
facet normal -1.1457462988028884e-05 -0.9951847266068752 0.09801714032313966
  outer loop
    vertex 209.75571721295614 71.17946173234898 2.516104051026504
    vertex 211.75571721282395 71.09605632342814 1.6695085078910437
    vertex 211.75571721282395 71.17943912755727 2.5161083256105554
  endloop
endfacet
facet normal -1.0432039921831302e-05 -0.8128466845473847 0.5824776968361081
  outer loop
    vertex 211.75571721282395 73.25911736266058 8.041680848503594
    vertex 209.75571721295614 73.75465150292662 8.73316212083937
    vertex 209.75571721295614 73.25913996745226 8.041676573919542
  endloop
endfacet
facet normal -1.0432039921831302e-05 -0.8128466845473847 0.5824776968361081
  outer loop
    vertex 209.75571721295614 73.75465150292662 8.73316212083937
    vertex 211.75571721282395 73.25911736266058 8.041680848503594
    vertex 211.75571721282395 73.75462889813494 8.733166395423423
  endloop
endfacet
facet normal -2.1372920316707407e-06 2.2409798721962817e-23 0.999999999997716
  outer loop
    vertex 211.75581746424083 80.68349361674652 15.819309774216695
    vertex 209.75581746437302 82.18351622153821 15.81930549963263
    vertex 209.75581746437302 80.6835162215382 15.81930549963263
  endloop
endfacet
facet normal -2.1372920316707407e-06 2.2409798721962817e-23 0.999999999997716
  outer loop
    vertex 209.75581746437302 82.18351622153821 15.81930549963263
    vertex 211.75581746424083 80.68349361674652 15.819309774216695
    vertex 211.75581746424083 82.18349361674653 15.819309774216695
  endloop
endfacet
facet normal -1.0726654418187196e-05 -0.8492021814777281 0.5280678506199811
  outer loop
    vertex 211.75571721282395 72.80989207400577 7.319267820229441
    vertex 209.75571721295614 73.25913996745226 8.041676573919542
    vertex 209.75571721295614 72.8099146787975 7.319263545645389
  endloop
endfacet
facet normal -1.0726654418187196e-05 -0.8492021814777281 0.5280678506199811
  outer loop
    vertex 209.75571721295614 73.25913996745226 8.041676573919542
    vertex 211.75571721282395 72.80989207400577 7.319267820229441
    vertex 211.75571721282395 73.25911736266058 8.041680848503594
  endloop
endfacet
facet normal -9.50329127481639e-06 -0.7071064371438525 0.7071071251652147
  outer loop
    vertex 211.75571721282395 74.87583416497378 10.011655971999595
    vertex 209.75581746437302 80.6835162215382 15.81930549963263
    vertex 209.75571721295614 74.87585676976545 10.011651697415543
  endloop
endfacet
facet normal -9.50329127481639e-06 -0.7071064371438525 0.7071071251652147
  outer loop
    vertex 209.75581746437302 80.6835162215382 15.81930549963263
    vertex 211.75571721282395 74.87583416497378 10.011655971999595
    vertex 211.75581746424083 80.68349361674652 15.819309774216695
  endloop
endfacet
facet normal 2.1372920316707407e-06 2.0049336406438805e-22 -0.999999999997716
  outer loop
    vertex 211.75571721282395 72.5682223255678 0.8192678290533982
    vertex 209.75571721295614 71.06824493035953 0.8192635544693351
    vertex 209.75571721295614 72.56824493035953 0.8192635544693351
  endloop
endfacet
facet normal 2.1372920316707407e-06 2.0049336406438805e-22 -0.999999999997716
  outer loop
    vertex 209.75571721295614 71.06824493035953 0.8192635544693351
    vertex 211.75571721282395 72.5682223255678 0.8192678290533982
    vertex 211.75571721282395 71.0682223255678 0.8192678290533982
  endloop
endfacet
facet normal -1.0975335735629028e-05 -0.8819212642952214 0.47139673679763694
  outer loop
    vertex 211.75571721282395 72.40887668382288 6.5690207940949525
    vertex 209.75571721295614 72.8099146787975 7.319263545645389
    vertex 209.75571721295614 72.4088992886146 6.569016519510889
  endloop
endfacet
facet normal -1.0975335735629028e-05 -0.8819212642952214 0.47139673679763694
  outer loop
    vertex 209.75571721295614 72.8099146787975 7.319263545645389
    vertex 211.75571721282395 72.40887668382288 6.5690207940949525
    vertex 211.75571721282395 72.80989207400577 7.319267820229441
  endloop
endfacet
facet normal -1.143614161540231e-05 -0.9569403356696471 0.29028467723542983
  outer loop
    vertex 211.75571721282395 71.51118658320861 4.183915410818548
    vertex 209.75571721295614 71.75815324598658 4.99797659773772
    vertex 209.75571721295614 71.51120918800034 4.183911136234497
  endloop
endfacet
facet normal -1.143614161540231e-05 -0.9569403356696471 0.29028467723542983
  outer loop
    vertex 209.75571721295614 71.75815324598658 4.99797659773772
    vertex 211.75571721282395 71.51118658320861 4.183915410818548
    vertex 211.75571721282395 71.75813064119485 4.997980872321772
  endloop
endfacet
facet normal -1.0092753838552571e-05 -0.7730104533233838 0.6343932841313135
  outer loop
    vertex 211.75571721282395 73.75462889813494 8.733166395423423
    vertex 209.75571721295614 74.29432742875332 9.390759139134193
    vertex 209.75571721295614 73.75465150292662 8.73316212083937
  endloop
endfacet
facet normal -1.0092753838552571e-05 -0.7730104533233838 0.6343932841313135
  outer loop
    vertex 209.75571721295614 74.29432742875332 9.390759139134193
    vertex 211.75571721282395 73.75462889813494 8.733166395423423
    vertex 211.75571721282395 74.29430482396164 9.390763413718245
  endloop
endfacet
facet normal -9.710249033891745e-06 -0.7298640726634333 0.6835923019906365
  outer loop
    vertex 211.75571721282395 74.29430482396164 9.390763413718245
    vertex 209.75571721295614 74.87585676976545 10.011651697415543
    vertex 209.75571721295614 74.29432742875332 9.390759139134193
  endloop
endfacet
facet normal -9.710249033891745e-06 -0.7298640726634333 0.6835923019906365
  outer loop
    vertex 209.75571721295614 74.87585676976545 10.011651697415543
    vertex 211.75571721282395 74.29430482396164 9.390763413718245
    vertex 211.75571721282395 74.87583416497378 10.011655971999595
  endloop
endfacet
facet normal -1.1499588709291686e-05 -0.9866433320196293 0.1628954733838952
  outer loop
    vertex 211.75571721282395 71.17943912755727 2.5161083256105554
    vertex 209.75571721295614 71.31803628477847 3.355437737236073
    vertex 209.75571721295614 71.17946173234898 2.516104051026504
  endloop
endfacet
facet normal -1.1499588709291686e-05 -0.9866433320196293 0.1628954733838952
  outer loop
    vertex 209.75571721295614 71.31803628477847 3.355437737236073
    vertex 211.75571721282395 71.17943912755727 2.5161083256105554
    vertex 211.75571721282395 71.31801367998676 3.355442011820136
  endloop
endfacet
facet normal -1.1330840491106094e-05 -0.9359059266972298 0.3522500478986647
  outer loop
    vertex 211.75571721282395 71.75813064119485 4.997980872321772
    vertex 209.75571721295614 72.05781100636948 5.7941481684619625
    vertex 209.75571721295614 71.75815324598658 4.99797659773772
  endloop
endfacet
facet normal -1.1330840491106094e-05 -0.9359059266972298 0.3522500478986647
  outer loop
    vertex 209.75571721295614 72.05781100636948 5.7941481684619625
    vertex 211.75571721282395 71.75813064119485 4.997980872321772
    vertex 211.75571721282395 72.05778840157775 5.7941524430460145
  endloop
endfacet
facet normal -1.1366274651366321e-05 -0.9994645874118055 0.03271908281962379
  outer loop
    vertex 211.75571721282395 71.0682223255678 0.8192678290533982
    vertex 209.75571721295614 71.09607892821987 1.6695042333069805
    vertex 209.75571721295614 71.06824493035953 0.8192635544693351
  endloop
endfacet
facet normal -1.1366274651366321e-05 -0.9994645874118055 0.03271908281962379
  outer loop
    vertex 209.75571721295614 71.09607892821987 1.6695042333069805
    vertex 211.75571721282395 71.0682223255678 0.8192678290533982
    vertex 211.75571721282395 71.09605632342814 1.6695085078910437
  endloop
endfacet
facet normal -1.1177018969435218e-05 -0.9108638248642913 0.41270702977859286
  outer loop
    vertex 211.75571721282395 72.05778840157775 5.7941524430460145
    vertex 209.75571721295614 72.4088992886146 6.569016519510889
    vertex 209.75571721295614 72.05781100636948 5.7941481684619625
  endloop
endfacet
facet normal -1.1177018969435218e-05 -0.9108638248642913 0.41270702977859286
  outer loop
    vertex 209.75571721295614 72.4088992886146 6.569016519510889
    vertex 211.75571721282395 72.05778840157775 5.7941524430460145
    vertex 211.75571721282395 72.40887668382288 6.5690207940949525
  endloop
endfacet
facet normal -1.1492471426254522e-05 -0.9738769792130222 0.22707626301937026
  outer loop
    vertex 211.75571721282395 71.31801367998676 3.355442011820136
    vertex 209.75571721295614 71.51120918800034 4.183911136234497
    vertex 209.75571721295614 71.31803628477847 3.355437737236073
  endloop
endfacet
facet normal -1.1492471426254522e-05 -0.9738769792130222 0.22707626301937026
  outer loop
    vertex 209.75571721295614 71.51120918800034 4.183911136234497
    vertex 211.75571721282395 71.31801367998676 3.355442011820136
    vertex 211.75571721282395 71.51118658320861 4.183915410818548
  endloop
endfacet
facet normal 0.9999999999999365 3.5578090428573526e-07 2.565119233690522e-08
  outer loop
    vertex 211.75571861351338 111.30138573502914 0.8192641740542214
    vertex 211.75571721294452 110.06825151912163 3.8192641740542164
    vertex 211.75571721294452 110.06825151912163 0.8192641740542214
  endloop
endfacet
facet normal 0.9999999999999365 3.5578090428573526e-07 2.565119233690522e-08
  outer loop
    vertex 211.75571721294452 110.06825151912163 3.8192641740542164
    vertex 211.75571861351338 111.30138573502914 0.8192641740542214
    vertex 211.75572001404186 110.23461307315023 8.509169914620161
  endloop
endfacet
facet normal 0.9999999999999365 3.5578090428573526e-07 2.565119233690522e-08
  outer loop
    vertex 211.75572001404186 110.23461307315023 8.509169914620161
    vertex 211.75571861351338 111.30138573502914 0.8192641740542214
    vertex 211.75572001404186 110.55040466464237 7.72517843856385
  endloop
endfacet
facet normal 0.9999999999999365 3.5578090428573526e-07 2.565119233690522e-08
  outer loop
    vertex 211.75572001404186 110.55040466464237 7.72517843856385
    vertex 211.75571861351338 111.30138573502914 0.8192641740542214
    vertex 211.75572001404186 110.81234865032592 6.921591285760657
  endloop
endfacet
facet normal 0.9999999999999365 3.5578090428573526e-07 2.565119233690522e-08
  outer loop
    vertex 211.75572001404186 110.81234865032592 6.921591285760657
    vertex 211.75571861351338 111.30138573502914 0.8192641740542214
    vertex 211.75572001404186 111.01924101660614 6.102102107942524
  endloop
endfacet
facet normal 0.9999999999999365 3.5578090428573526e-07 2.565119233690522e-08
  outer loop
    vertex 211.75572001404186 111.01924101660614 6.102102107942524
    vertex 211.75571861351338 111.30138573502914 0.8192641740542214
    vertex 211.75572001404186 111.1701307921487 5.270477649774766
  endloop
endfacet
facet normal 0.9999999999999365 3.5578090428573526e-07 2.565119233690522e-08
  outer loop
    vertex 211.75572001404186 111.1701307921487 5.270477649774766
    vertex 211.75571861351338 111.30138573502914 0.8192641740542214
    vertex 211.75572001404186 111.26432441897566 4.430540435185912
  endloop
endfacet
facet normal 0.9999999999999365 3.5578090428573526e-07 2.565119233690522e-08
  outer loop
    vertex 211.75572001404186 111.26432441897566 4.430540435185912
    vertex 211.75571861351338 111.30138573502914 0.8192641740542214
    vertex 211.7557186135076 111.29084683845134 3.8262506950065176
  endloop
endfacet
facet normal 0.9999999999999365 3.5578090428573526e-07 2.565119233690522e-08
  outer loop
    vertex 211.7557186135076 111.29084683845134 3.8262506950065176
    vertex 211.75571861351338 111.30138573502914 0.8192641740542214
    vertex 211.75572001408236 111.30138573502914 3.586131309192477
  endloop
endfacet
facet normal 0.9999999999999365 3.5578090428573526e-07 2.565119233690522e-08
  outer loop
    vertex 211.75570223652926 97.3440567706945 12.841359633517884
    vertex 211.75572777969316 98.22961398133778 13.455798861955024
    vertex 211.75574125894389 96.86610721172893 13.319306422569088
  endloop
endfacet
facet normal 0.9999999999999365 3.5578090428573526e-07 2.565119233690522e-08
  outer loop
    vertex 211.75572777969316 98.22961398133778 13.455798861955024
    vertex 211.75570223652926 97.3440567706945 12.841359633517884
    vertex 211.755717212904 106.07360805440848 12.841290045110018
  endloop
endfacet
facet normal 0.9999999999999365 3.5578090428573526e-07 2.565119233690522e-08
  outer loop
    vertex 211.75572777969316 98.22961398133778 13.455798861955024
    vertex 211.755717212904 106.07360805440848 12.841290045110018
    vertex 211.75572001404186 106.45164190417368 13.455798862120387
  endloop
endfacet
facet normal 0.9999999999999365 3.5578090428573526e-07 2.565119233690522e-08
  outer loop
    vertex 211.75572001404186 106.45164190417368 13.455798862120387
    vertex 211.755717212904 106.07360805440848 12.841290045110018
    vertex 211.755717212904 106.67386852450817 12.246265397030623
  endloop
endfacet
facet normal 0.9999999999999365 3.5578090428573526e-07 2.565119233690522e-08
  outer loop
    vertex 211.75572001404186 106.45164190417368 13.455798862120387
    vertex 211.755717212904 106.67386852450817 12.246265397030623
    vertex 211.75572001404186 107.30674227031612 12.60815718024829
  endloop
endfacet
facet normal 0.9999999999999365 3.5578090428573526e-07 2.565119233690522e-08
  outer loop
    vertex 211.75572001404186 107.30674227031612 12.60815718024829
    vertex 211.755717212904 106.67386852450817 12.246265397030623
    vertex 211.755717212904 107.23243166529548 11.611935686596198
  endloop
endfacet
facet normal 0.9999999999999365 3.5578090428573526e-07 2.565119233690522e-08
  outer loop
    vertex 211.75572001404186 107.30674227031612 12.60815718024829
    vertex 211.755717212904 107.23243166529548 11.611935686596198
    vertex 211.755717212904 107.74673006674541 10.941216581417178
  endloop
endfacet
facet normal 0.9999999999999365 3.5578090428573526e-07 2.565119233690522e-08
  outer loop
    vertex 211.75572001404186 107.30674227031612 12.60815718024829
    vertex 211.755717212904 107.74673006674541 10.941216581417178
    vertex 211.75572001404186 107.90700274041572 12.013132532168873
  endloop
endfacet
facet normal 0.9999999999999365 3.5578090428573526e-07 2.565119233690522e-08
  outer loop
    vertex 211.75572001404186 107.90700274041572 12.013132532168873
    vertex 211.755717212904 107.74673006674541 10.941216581417178
    vertex 211.755717212904 108.21439977968988 10.237191011298721
  endloop
endfacet
facet normal 0.9999999999999365 3.5578090428573526e-07 2.565119233690522e-08
  outer loop
    vertex 211.75572001404186 107.90700274041572 12.013132532168873
    vertex 211.755717212904 108.21439977968988 10.237191011298721
    vertex 211.75572001404186 108.46556588120299 11.37880282173447
  endloop
endfacet
facet normal 0.9999999999999365 3.5578090428573526e-07 2.565119233690522e-08
  outer loop
    vertex 211.75572001404186 108.46556588120299 11.37880282173447
    vertex 211.755717212904 108.21439977968988 10.237191011298721
    vertex 211.755717212904 108.63329118160283 9.503094997694635
  endloop
endfacet
facet normal 0.9999999999999365 3.5578090428573526e-07 2.565119233690522e-08
  outer loop
    vertex 211.75572001404186 108.46556588120299 11.37880282173447
    vertex 211.755717212904 108.63329118160283 9.503094997694635
    vertex 211.75572001404186 108.97986428265303 10.70808371655544
  endloop
endfacet
facet normal 0.9999999999999365 3.5578090428573526e-07 2.565119233690522e-08
  outer loop
    vertex 211.75572001404186 108.97986428265303 10.70808371655544
    vertex 211.755717212904 108.63329118160283 9.503094997694635
    vertex 211.755717212904 109.00147885724272 8.74230277948189
  endloop
endfacet
facet normal 0.9999999999999365 3.5578090428573526e-07 2.565119233690522e-08
  outer loop
    vertex 211.75572001404186 108.97986428265303 10.70808371655544
    vertex 211.755717212904 109.00147885724272 8.74230277948189
    vertex 211.75572001404186 109.4475339955974 10.004058146436982
  endloop
endfacet
facet normal 0.9999999999999365 3.5578090428573526e-07 2.565119233690522e-08
  outer loop
    vertex 211.75572001404186 109.4475339955974 10.004058146436982
    vertex 211.755717212904 109.00147885724272 8.74230277948189
    vertex 211.755717212904 109.31727044873486 7.958311303425577
  endloop
endfacet
facet normal 0.9999999999999365 3.5578090428573526e-07 2.565119233690522e-08
  outer loop
    vertex 211.75572001404186 109.4475339955974 10.004058146436982
    vertex 211.755717212904 109.31727044873486 7.958311303425577
    vertex 211.755717212904 109.5792144344183 7.154724150622379
  endloop
endfacet
facet normal 0.9999999999999365 3.5578090428573526e-07 2.565119233690522e-08
  outer loop
    vertex 211.75572001404186 109.4475339955974 10.004058146436982
    vertex 211.755717212904 109.5792144344183 7.154724150622379
    vertex 211.75572001404186 109.86642539751043 9.269962132832896
  endloop
endfacet
facet normal 0.9999999999999365 3.5578090428573526e-07 2.565119233690522e-08
  outer loop
    vertex 211.75572001404186 109.86642539751043 9.269962132832896
    vertex 211.755717212904 109.5792144344183 7.154724150622379
    vertex 211.755717212904 109.78610680069863 6.335234972804251
  endloop
endfacet
facet normal 0.9999999999999365 3.5578090428573526e-07 2.565119233690522e-08
  outer loop
    vertex 211.75572001404186 109.86642539751043 9.269962132832896
    vertex 211.755717212904 109.78610680069863 6.335234972804251
    vertex 211.755717212904 109.9369965762411 5.503610514636494
  endloop
endfacet
facet normal 0.9999999999999365 3.5578090428573526e-07 2.565119233690522e-08
  outer loop
    vertex 211.75572001404186 109.86642539751043 9.269962132832896
    vertex 211.755717212904 109.9369965762411 5.503610514636494
    vertex 211.75572001404186 110.23461307315023 8.509169914620161
  endloop
endfacet
facet normal 0.9999999999999365 3.5578090428573526e-07 2.565119233690522e-08
  outer loop
    vertex 211.75572001404186 110.23461307315023 8.509169914620161
    vertex 211.755717212904 109.9369965762411 5.503610514636494
    vertex 211.755717212904 110.03119020306806 4.66367330004764
  endloop
endfacet
facet normal 0.9999999999999365 3.5578090428573526e-07 2.565119233690522e-08
  outer loop
    vertex 211.75572001404186 110.23461307315023 8.509169914620161
    vertex 211.755717212904 110.03119020306806 4.66367330004764
    vertex 211.75571721294452 110.06825151912163 3.8192641740542164
  endloop
endfacet
facet normal 0.999999999933844 -1.130239585455629e-05 2.1372920280672004e-06
  outer loop
    vertex 211.75571721282395 72.5682223255678 0.8192678290533982
    vertex 211.75571721282395 71.09605632342814 1.6695085078910437
    vertex 211.75571721282395 71.0682223255678 0.8192678290533982
  endloop
endfacet
facet normal 0.999999999933844 -1.130239585455629e-05 2.1372920280672004e-06
  outer loop
    vertex 211.75571721282395 71.09605632342814 1.6695085078910437
    vertex 211.75571721282395 72.5682223255678 0.8192678290533982
    vertex 211.75571721282395 71.17943912755727 2.5161083256105554
  endloop
endfacet
facet normal 0.999999999933844 -1.130239585455629e-05 2.1372920280672004e-06
  outer loop
    vertex 211.75571721282395 71.17943912755727 2.5161083256105554
    vertex 211.75571721282395 72.5682223255678 0.8192678290533982
    vertex 211.75571721282395 71.31801367998676 3.355442011820136
  endloop
endfacet
facet normal 0.999999999933844 -1.130239585455629e-05 2.1372920280672004e-06
  outer loop
    vertex 211.75571721282395 71.31801367998676 3.355442011820136
    vertex 211.75571721282395 72.5682223255678 0.8192678290533982
    vertex 211.75571721282395 71.51118658320861 4.183915410818548
  endloop
endfacet
facet normal 0.999999999933844 -1.130239585455629e-05 2.1372920280672004e-06
  outer loop
    vertex 211.75571721282395 71.51118658320861 4.183915410818548
    vertex 211.75571721282395 72.5682223255678 0.8192678290533982
    vertex 211.75571721282395 71.75813064119485 4.997980872321772
  endloop
endfacet
facet normal 0.999999999933844 -1.130239585455629e-05 2.1372920280672004e-06
  outer loop
    vertex 211.75571721282395 71.75813064119485 4.997980872321772
    vertex 211.75571721282395 72.5682223255678 0.8192678290533982
    vertex 211.75571721282395 72.05778840157775 5.7941524430460145
  endloop
endfacet
facet normal 0.999999999933844 -1.130239585455629e-05 2.1372920280672004e-06
  outer loop
    vertex 211.75571721282395 72.05778840157775 5.7941524430460145
    vertex 211.75571721282395 72.5682223255678 0.8192678290533982
    vertex 211.75571721282395 72.40887668382288 6.5690207940949525
  endloop
endfacet
facet normal 0.999999999933844 -1.130239585455629e-05 2.1372920280672004e-06
  outer loop
    vertex 211.75571721282395 72.40887668382288 6.5690207940949525
    vertex 211.75571721282395 72.5682223255678 0.8192678290533982
    vertex 211.75571721282395 72.59605632342814 1.6695085078910437
  endloop
endfacet
facet normal 0.999999999933844 -1.130239585455629e-05 2.1372920280672004e-06
  outer loop
    vertex 211.75571721282395 72.40887668382288 6.5690207940949525
    vertex 211.75571721282395 72.59605632342814 1.6695085078910437
    vertex 211.75571721282395 72.80989207400577 7.319267820229441
  endloop
endfacet
facet normal 0.999999999933844 -1.130239585455629e-05 2.1372920280672004e-06
  outer loop
    vertex 211.75571721282395 72.80989207400577 7.319267820229441
    vertex 211.75571721282395 72.59605632342814 1.6695085078910437
    vertex 211.75571721282395 72.67943912755726 2.5161083256105554
  endloop
endfacet
facet normal 0.999999999933844 -1.130239585455629e-05 2.1372920280672004e-06
  outer loop
    vertex 211.75571721282395 72.80989207400577 7.319267820229441
    vertex 211.75571721282395 72.67943912755726 2.5161083256105554
    vertex 211.75571721282395 72.81801367998675 3.355442011820136
  endloop
endfacet
facet normal 0.999999999933844 -1.130239585455629e-05 2.1372920280672004e-06
  outer loop
    vertex 211.75571721282395 72.80989207400577 7.319267820229441
    vertex 211.75571721282395 72.81801367998675 3.355442011820136
    vertex 211.75571721282395 73.25911736266058 8.041680848503594
  endloop
endfacet
facet normal 0.999999999933844 -1.130239585455629e-05 2.1372920280672004e-06
  outer loop
    vertex 211.75571721282395 73.25911736266058 8.041680848503594
    vertex 211.75571721282395 72.81801367998675 3.355442011820136
    vertex 211.75571721282395 73.01118658320853 4.183915410818548
  endloop
endfacet
facet normal 0.999999999933844 -1.130239585455629e-05 2.1372920280672004e-06
  outer loop
    vertex 211.75571721282395 73.25911736266058 8.041680848503594
    vertex 211.75571721282395 73.01118658320853 4.183915410818548
    vertex 211.75571721282395 73.2581306411949 4.997980872321772
  endloop
endfacet
facet normal 0.999999999933844 -1.130239585455629e-05 2.1372920280672004e-06
  outer loop
    vertex 211.75571721282395 73.25911736266058 8.041680848503594
    vertex 211.75571721282395 73.2581306411949 4.997980872321772
    vertex 211.75571721282395 73.5577884015778 5.7941524430460145
  endloop
endfacet
facet normal 0.999999999933844 -1.130239585455629e-05 2.1372920280672004e-06
  outer loop
    vertex 211.75571721282395 73.25911736266058 8.041680848503594
    vertex 211.75571721282395 73.5577884015778 5.7941524430460145
    vertex 211.75571721282395 73.75462889813494 8.733166395423423
  endloop
endfacet
facet normal 0.999999999933844 -1.130239585455629e-05 2.1372920280672004e-06
  outer loop
    vertex 211.75571721282395 73.75462889813494 8.733166395423423
    vertex 211.75571721282395 73.5577884015778 5.7941524430460145
    vertex 211.75571721282395 73.90887668382295 6.5690207940949525
  endloop
endfacet
facet normal 0.999999999933844 -1.130239585455629e-05 2.1372920280672004e-06
  outer loop
    vertex 211.75571721282395 73.75462889813494 8.733166395423423
    vertex 211.75571721282395 73.90887668382295 6.5690207940949525
    vertex 211.75571721282395 74.29430482396164 9.390763413718245
  endloop
endfacet
facet normal 0.999999999933844 -1.130239585455629e-05 2.1372920280672004e-06
  outer loop
    vertex 211.75571721282395 74.29430482396164 9.390763413718245
    vertex 211.75571721282395 73.90887668382295 6.5690207940949525
    vertex 211.75571721282395 74.30989207400575 7.319267820229441
  endloop
endfacet
facet normal 0.999999999933844 -1.130239585455629e-05 2.1372920280672004e-06
  outer loop
    vertex 211.75571721282395 74.29430482396164 9.390763413718245
    vertex 211.75571721282395 74.30989207400575 7.319267820229441
    vertex 211.75571721282395 74.87583416497378 10.011655971999595
  endloop
endfacet
facet normal 0.999999999933844 -1.130239585455629e-05 2.1372920280672004e-06
  outer loop
    vertex 211.75571721282395 74.87583416497378 10.011655971999595
    vertex 211.75571721282395 74.30989207400575 7.319267820229441
    vertex 211.75571721282395 74.7591173626606 8.041680848503594
  endloop
endfacet
facet normal 0.999999999933844 -1.130239585455629e-05 2.1372920280672004e-06
  outer loop
    vertex 211.75571721282395 74.87583416497378 10.011655971999595
    vertex 211.75571721282395 74.7591173626606 8.041680848503594
    vertex 211.75571721282395 75.25462889813495 8.733166395423423
  endloop
endfacet
facet normal 0.999999999933844 -1.130239585455629e-05 2.1372920280672004e-06
  outer loop
    vertex 211.75571721282395 74.87583416497378 10.011655971999595
    vertex 211.75571721282395 75.25462889813495 8.733166395423423
    vertex 211.75581746424083 80.68349361674652 15.819309774216695
  endloop
endfacet
facet normal 0.999999999933844 -1.130239585455629e-05 2.1372920280672004e-06
  outer loop
    vertex 211.75581746424083 80.68349361674652 15.819309774216695
    vertex 211.75571721282395 75.25462889813495 8.733166395423423
    vertex 211.75571721282395 75.79430482396165 9.390763413718245
  endloop
endfacet
facet normal 0.999999999933844 -1.130239585455629e-05 2.1372920280672004e-06
  outer loop
    vertex 211.75581746424083 80.68349361674652 15.819309774216695
    vertex 211.75571721282395 75.79430482396165 9.390763413718245
    vertex 211.75571721282395 76.3758341649738 10.011655971999595
  endloop
endfacet
facet normal 0.999999999933844 -1.130239585455629e-05 2.1372920280672004e-06
  outer loop
    vertex 211.75581746424083 80.68349361674652 15.819309774216695
    vertex 211.75571721282395 76.3758341649738 10.011655971999595
    vertex 211.75581746424083 82.18349361674653 15.819309774216695
  endloop
endfacet
facet normal -3.403784283237981e-06 0.9839353694250546 0.17852503685140614
  outer loop
    vertex 209.7557200140534 111.0192342650113 6.1021011868638535
    vertex 211.75572001404186 111.1701307921487 5.270477649774766
    vertex 209.7557200140534 111.17012404055386 5.270476728696097
  endloop
endfacet
facet normal -3.403784283237981e-06 0.9839353694250546 0.17852503685140614
  outer loop
    vertex 211.75572001404186 111.1701307921487 5.270477649774766
    vertex 209.7557200140534 111.0192342650113 6.1021011868638535
    vertex 211.75572001404186 111.01924101660614 6.102102107942524
  endloop
endfacet
facet normal -3.3927443609990513e-06 0.9990382129068364 0.04384802322117002
  outer loop
    vertex 209.7557200140534 111.26431766738082 4.430539514107243
    vertex 211.7557186135076 111.29084683845134 3.8262506950065176
    vertex 209.75571861351918 111.2908400868565 3.8262497739278474
  endloop
endfacet
facet normal -3.3927443609990513e-06 0.9990382129068364 0.04384802322117002
  outer loop
    vertex 211.7557186135076 111.29084683845134 3.8262506950065176
    vertex 209.7557200140534 111.26431766738082 4.430539514107243
    vertex 211.75572001404186 111.26432441897566 4.430540435185912
  endloop
endfacet
facet normal 1.9016139418708778e-06 0.9999999999981921 -3.734054373472817e-23
  outer loop
    vertex 206.75571721296578 110.06825047236862 0.819268301555375
    vertex 209.75571721295606 110.06824476752679 3.819263252975546
    vertex 209.75571721295606 110.06824476752679 0.8192632529755514
  endloop
endfacet
facet normal 1.9016139418708778e-06 0.9999999999981921 -3.734054373472817e-23
  outer loop
    vertex 209.75571721295606 110.06824476752679 3.819263252975546
    vertex 206.75571721296578 110.06825047236862 0.819268301555375
    vertex 206.75571721296578 110.06825047236862 3.8192683015553586
  endloop
endfacet
facet normal -0.999999999933844 1.130239585455634e-05 -2.1372920280671805e-06
  outer loop
    vertex 209.75571721295614 71.09607892821987 1.6695042333069805
    vertex 209.75571721295614 72.56824493035953 0.8192635544693351
    vertex 209.75571721295614 71.06824493035953 0.8192635544693351
  endloop
endfacet
facet normal -0.999999999933844 1.130239585455634e-05 -2.1372920280671805e-06
  outer loop
    vertex 209.75571721295614 72.56824493035953 0.8192635544693351
    vertex 209.75571721295614 71.09607892821987 1.6695042333069805
    vertex 209.75571721295614 71.17946173234898 2.516104051026504
  endloop
endfacet
facet normal -0.999999999933844 1.130239585455634e-05 -2.1372920280671805e-06
  outer loop
    vertex 209.75571721295614 72.56824493035953 0.8192635544693351
    vertex 209.75571721295614 71.17946173234898 2.516104051026504
    vertex 209.75571721295614 71.31803628477847 3.355437737236073
  endloop
endfacet
facet normal -0.999999999933844 1.130239585455634e-05 -2.1372920280671805e-06
  outer loop
    vertex 209.75571721295614 72.56824493035953 0.8192635544693351
    vertex 209.75571721295614 71.31803628477847 3.355437737236073
    vertex 209.75571721295614 71.51120918800034 4.183911136234497
  endloop
endfacet
facet normal -0.999999999933844 1.130239585455634e-05 -2.1372920280671805e-06
  outer loop
    vertex 209.75571721295614 72.56824493035953 0.8192635544693351
    vertex 209.75571721295614 71.51120918800034 4.183911136234497
    vertex 209.75571721295614 71.75815324598658 4.99797659773772
  endloop
endfacet
facet normal -0.999999999933844 1.130239585455634e-05 -2.1372920280671805e-06
  outer loop
    vertex 209.75571721295614 72.56824493035953 0.8192635544693351
    vertex 209.75571721295614 71.75815324598658 4.99797659773772
    vertex 209.75571721295614 72.05781100636948 5.7941481684619625
  endloop
endfacet
facet normal -0.999999999933844 1.130239585455634e-05 -2.1372920280671805e-06
  outer loop
    vertex 209.75571721295614 72.56824493035953 0.8192635544693351
    vertex 209.75571721295614 72.05781100636948 5.7941481684619625
    vertex 209.75571721295614 72.4088992886146 6.569016519510889
  endloop
endfacet
facet normal -0.999999999933844 1.130239585455634e-05 -2.1372920280671805e-06
  outer loop
    vertex 209.75571721295614 72.56824493035953 0.8192635544693351
    vertex 209.75571721295614 72.4088992886146 6.569016519510889
    vertex 209.75571721295614 72.59607892821987 1.6695042333069805
  endloop
endfacet
facet normal -0.999999999933844 1.130239585455634e-05 -2.1372920280671805e-06
  outer loop
    vertex 209.75571721295614 72.59607892821987 1.6695042333069805
    vertex 209.75571721295614 72.4088992886146 6.569016519510889
    vertex 209.75571721295614 72.8099146787975 7.319263545645389
  endloop
endfacet
facet normal -0.999999999933844 1.130239585455634e-05 -2.1372920280671805e-06
  outer loop
    vertex 209.75571721295614 72.59607892821987 1.6695042333069805
    vertex 209.75571721295614 72.8099146787975 7.319263545645389
    vertex 209.75571721295614 72.67946173234898 2.516104051026504
  endloop
endfacet
facet normal -0.999999999933844 1.130239585455634e-05 -2.1372920280671805e-06
  outer loop
    vertex 209.75571721295614 72.67946173234898 2.516104051026504
    vertex 209.75571721295614 72.8099146787975 7.319263545645389
    vertex 209.75571721295614 72.81803628477847 3.355437737236073
  endloop
endfacet
facet normal -0.999999999933844 1.130239585455634e-05 -2.1372920280671805e-06
  outer loop
    vertex 209.75571721295614 72.81803628477847 3.355437737236073
    vertex 209.75571721295614 72.8099146787975 7.319263545645389
    vertex 209.75571721295614 73.25913996745226 8.041676573919542
  endloop
endfacet
facet normal -0.999999999933844 1.130239585455634e-05 -2.1372920280671805e-06
  outer loop
    vertex 209.75571721295614 72.81803628477847 3.355437737236073
    vertex 209.75571721295614 73.25913996745226 8.041676573919542
    vertex 209.75571721295614 73.01120918800025 4.183911136234497
  endloop
endfacet
facet normal -0.999999999933844 1.130239585455634e-05 -2.1372920280671805e-06
  outer loop
    vertex 209.75571721295614 73.01120918800025 4.183911136234497
    vertex 209.75571721295614 73.25913996745226 8.041676573919542
    vertex 209.75571721295614 73.25815324598658 4.99797659773772
  endloop
endfacet
facet normal -0.999999999933844 1.130239585455634e-05 -2.1372920280671805e-06
  outer loop
    vertex 209.75571721295614 73.25815324598658 4.99797659773772
    vertex 209.75571721295614 73.25913996745226 8.041676573919542
    vertex 209.75571721295614 73.55781100636946 5.7941481684619625
  endloop
endfacet
facet normal -0.999999999933844 1.130239585455634e-05 -2.1372920280671805e-06
  outer loop
    vertex 209.75571721295614 73.55781100636946 5.7941481684619625
    vertex 209.75571721295614 73.25913996745226 8.041676573919542
    vertex 209.75571721295614 73.75465150292662 8.73316212083937
  endloop
endfacet
facet normal -0.999999999933844 1.130239585455634e-05 -2.1372920280671805e-06
  outer loop
    vertex 209.75571721295614 73.55781100636946 5.7941481684619625
    vertex 209.75571721295614 73.75465150292662 8.73316212083937
    vertex 209.75571721295614 73.90889928861463 6.569016519510889
  endloop
endfacet
facet normal -0.999999999933844 1.130239585455634e-05 -2.1372920280671805e-06
  outer loop
    vertex 209.75571721295614 73.90889928861463 6.569016519510889
    vertex 209.75571721295614 73.75465150292662 8.73316212083937
    vertex 209.75571721295614 74.29432742875332 9.390759139134193
  endloop
endfacet
facet normal -0.999999999933844 1.130239585455634e-05 -2.1372920280671805e-06
  outer loop
    vertex 209.75571721295614 73.90889928861463 6.569016519510889
    vertex 209.75571721295614 74.29432742875332 9.390759139134193
    vertex 209.75571721295614 74.30991467879743 7.319263545645389
  endloop
endfacet
facet normal -0.999999999933844 1.130239585455634e-05 -2.1372920280671805e-06
  outer loop
    vertex 209.75571721295614 74.30991467879743 7.319263545645389
    vertex 209.75571721295614 74.29432742875332 9.390759139134193
    vertex 209.75571721295614 74.87585676976545 10.011651697415543
  endloop
endfacet
facet normal -0.999999999933844 1.130239585455634e-05 -2.1372920280671805e-06
  outer loop
    vertex 209.75571721295614 74.30991467879743 7.319263545645389
    vertex 209.75571721295614 74.87585676976545 10.011651697415543
    vertex 209.75571721295614 74.75913996745227 8.041676573919542
  endloop
endfacet
facet normal -0.999999999933844 1.130239585455634e-05 -2.1372920280671805e-06
  outer loop
    vertex 209.75571721295614 74.75913996745227 8.041676573919542
    vertex 209.75571721295614 74.87585676976545 10.011651697415543
    vertex 209.75571721295614 75.25465150292663 8.73316212083937
  endloop
endfacet
facet normal -0.999999999933844 1.130239585455634e-05 -2.1372920280671805e-06
  outer loop
    vertex 209.75571721295614 75.25465150292663 8.73316212083937
    vertex 209.75571721295614 74.87585676976545 10.011651697415543
    vertex 209.75581746437302 80.6835162215382 15.81930549963263
  endloop
endfacet
facet normal -0.999999999933844 1.130239585455634e-05 -2.1372920280671805e-06
  outer loop
    vertex 209.75571721295614 75.25465150292663 8.73316212083937
    vertex 209.75581746437302 80.6835162215382 15.81930549963263
    vertex 209.75571721295614 75.79432742875333 9.390759139134193
  endloop
endfacet
facet normal -0.999999999933844 1.130239585455634e-05 -2.1372920280671805e-06
  outer loop
    vertex 209.75571721295614 75.79432742875333 9.390759139134193
    vertex 209.75581746437302 80.6835162215382 15.81930549963263
    vertex 209.75571721295614 76.37585676976548 10.011651697415543
  endloop
endfacet
facet normal -0.999999999933844 1.130239585455634e-05 -2.1372920280671805e-06
  outer loop
    vertex 209.75571721295614 76.37585676976548 10.011651697415543
    vertex 209.75581746437302 80.6835162215382 15.81930549963263
    vertex 209.75581746437302 82.18351622153821 15.81930549963263
  endloop
endfacet
facet normal -3.3033875813694556e-06 0.9275784701178349 0.37362840063751146
  outer loop
    vertex 209.7557200140534 110.23460632155539 8.509168993541492
    vertex 211.75572001404186 110.55040466464237 7.72517843856385
    vertex 209.7557200140534 110.55039791304753 7.72517751748518
  endloop
endfacet
facet normal -3.3033875813694556e-06 0.9275784701178349 0.37362840063751146
  outer loop
    vertex 211.75572001404186 110.55040466464237 7.72517843856385
    vertex 209.7557200140534 110.23460632155539 8.509168993541492
    vertex 211.75572001404186 110.23461307315023 8.509169914620161
  endloop
endfacet
facet normal -1.2840280767305965e-06 6.243101696238928e-08 -0.9999999999991738
  outer loop
    vertex 206.75571721296578 110.06825047236862 0.819268301555375
    vertex 211.73823292290652 90.78330620004691 0.8192600716692627
    vertex 206.7556829229226 90.78331567493342 0.8192684566030541
  endloop
endfacet
facet normal -1.2840280767305965e-06 6.243101696238928e-08 -0.9999999999991738
  outer loop
    vertex 211.73823292290652 90.78330620004691 0.8192600716692627
    vertex 206.75571721296578 110.06825047236862 0.819268301555375
    vertex 209.75571721295606 110.06824476752679 0.8192632529755514
  endloop
endfacet
facet normal -1.2840280767305965e-06 6.243101696238928e-08 -0.9999999999991738
  outer loop
    vertex 211.73823292290652 90.78330620004691 0.8192600716692627
    vertex 209.75571721295606 110.06824476752679 0.8192632529755514
    vertex 211.75571721294452 110.06825151912163 0.8192641740542214
  endloop
endfacet
facet normal -3.23927803544821e-06 0.9001302991166549 0.4356207577717904
  outer loop
    vertex 209.7557200140534 109.86641864591559 9.269961211754227
    vertex 211.75572001404186 110.23461307315023 8.509169914620161
    vertex 209.7557200140534 110.23460632155539 8.509168993541492
  endloop
endfacet
facet normal -3.23927803544821e-06 0.9001302991166549 0.4356207577717904
  outer loop
    vertex 211.75572001404186 110.23461307315023 8.509169914620161
    vertex 209.7557200140534 109.86641864591559 9.269961211754227
    vertex 211.75572001404186 109.86642539751043 9.269962132832896
  endloop
endfacet
facet normal 2.534605338848008e-06 0.7071047322914652 0.7071088300711504
  outer loop
    vertex 206.75574125896514 96.86610616497592 13.319310550070242
    vertex 209.7557022365408 97.34405001909965 12.841358712439225
    vertex 206.75570223655052 97.34405572394148 12.841363761019037
  endloop
endfacet
facet normal 2.534605338848008e-06 0.7071047322914652 0.7071088300711504
  outer loop
    vertex 209.7557022365408 97.34405001909965 12.841358712439225
    vertex 206.75574125896514 96.86610616497592 13.319310550070242
    vertex 209.75574125895545 96.86610046013409 13.31930550149043
  endloop
endfacet
facet normal 3.1232190293250954e-06 0.7071069514988082 0.7071066108673483
  outer loop
    vertex 206.75584094280518 82.18350973806827 15.819320799140577
    vertex 209.75581746437302 82.18351622153821 15.81930549963263
    vertex 206.75564863287923 90.78331567493342 7.219508437474812
  endloop
endfacet
facet normal 3.1232190293250954e-06 0.7071069514988082 0.7071066108673483
  outer loop
    vertex 206.75564863287923 90.78331567493342 7.219508437474812
    vertex 211.75581746424083 82.18349361674653 15.819309774216695
    vertex 211.73819863286317 90.78330620004691 7.219500052541027
  endloop
endfacet
facet normal 3.1232190293250954e-06 0.7071069514988082 0.7071066108673483
  outer loop
    vertex 211.75581746424083 82.18349361674653 15.819309774216695
    vertex 206.75564863287923 90.78331567493342 7.219508437474812
    vertex 209.75581746437302 82.18351622153821 15.81930549963263
  endloop
endfacet
facet normal -4.605393292721203e-07 -2.0547147731564228e-11 0.9999999999998941
  outer loop
    vertex 209.75572777970473 98.22960722974292 13.455797940876366
    vertex 211.75572001404186 106.45164190417368 13.455798862120387
    vertex 209.7557200140534 106.45163515257889 13.455797941041729
  endloop
endfacet
facet normal -4.605393292721203e-07 -2.0547147731564228e-11 0.9999999999998941
  outer loop
    vertex 211.75572001404186 106.45164190417368 13.455798862120387
    vertex 209.75572777970473 98.22960722974292 13.455797940876366
    vertex 211.75572777969316 98.22961398133778 13.455798861955024
  endloop
endfacet
facet normal -3.352313256784932e-06 0.95076306894676 0.30991867758446046
  outer loop
    vertex 209.7557200140534 110.55039791304753 7.72517751748518
    vertex 211.75572001404186 110.81234865032592 6.921591285760657
    vertex 209.7557200140534 110.81234189873108 6.921590364681987
  endloop
endfacet
facet normal -3.352313256784932e-06 0.95076306894676 0.30991867758446046
  outer loop
    vertex 211.75572001404186 110.81234865032592 6.921591285760657
    vertex 209.7557200140534 110.55039791304753 7.72517751748518
    vertex 211.75572001404186 110.55040466464237 7.72517843856385
  endloop
endfacet
facet normal 4.60539334983182e-07 -5.230712556470192e-13 -0.9999999999998941
  outer loop
    vertex 209.75571861352495 111.3013789834343 0.8192632529755514
    vertex 211.75571721294452 110.06825151912163 0.8192641740542214
    vertex 209.75571721295606 110.06824476752679 0.8192632529755514
  endloop
endfacet
facet normal 4.60539334983182e-07 -5.230712556470192e-13 -0.9999999999998941
  outer loop
    vertex 211.75571721294452 110.06825151912163 0.8192641740542214
    vertex 209.75571861352495 111.3013789834343 0.8192632529755514
    vertex 211.75571861351338 111.30138573502914 0.8192641740542214
  endloop
endfacet
facet normal 2.5339039093979726e-06 0.7040026194231355 0.7101973752689763
  outer loop
    vertex 209.75571721291556 106.07360130281369 12.84128912403136
    vertex 206.75571721292525 106.6738674777552 12.246269524531778
    vertex 206.75571721292525 106.07360700765551 12.841294172611171
  endloop
endfacet
facet normal 2.5339039093979726e-06 0.7040026194231355 0.7101973752689763
  outer loop
    vertex 206.75571721292525 106.6738674777552 12.246269524531778
    vertex 209.75571721291556 106.07360130281369 12.84128912403136
    vertex 209.75571721291556 106.67386177291337 12.246264475951943
  endloop
endfacet
facet normal -3.375797419914395e-06 0.9999999999943021 1.7088052662215174e-12
  outer loop
    vertex 209.75572001409392 111.3013789834343 3.586130388113807
    vertex 211.75571861351338 111.30138573502914 0.8192641740542214
    vertex 209.75571861352495 111.3013789834343 0.8192632529755514
  endloop
endfacet
facet normal -3.375797419914395e-06 0.9999999999943021 1.7088052662215174e-12
  outer loop
    vertex 211.75571861351338 111.30138573502914 0.8192641740542214
    vertex 209.75572001409392 111.3013789834343 3.586130388113807
    vertex 211.75572001408236 111.30138573502914 3.586131309192477
  endloop
endfacet
facet normal -0.9999999999967759 1.90161393948751e-06 1.6828599387693877e-06
  outer loop
    vertex 206.75574125896514 96.86610616497592 13.319310550070242
    vertex 206.7556829229226 90.78331567493342 0.8192684566030541
    vertex 206.75564863287923 90.78331567493342 7.219508437474812
  endloop
endfacet
facet normal -0.9999999999967759 1.90161393948751e-06 1.6828599387693877e-06
  outer loop
    vertex 206.7556829229226 90.78331567493342 0.8192684566030541
    vertex 206.75574125896514 96.86610616497592 13.319310550070242
    vertex 206.75570223655052 97.34405572394148 12.841363761019037
  endloop
endfacet
facet normal -0.9999999999967759 1.90161393948751e-06 1.6828599387693877e-06
  outer loop
    vertex 206.7556829229226 90.78331567493342 0.8192684566030541
    vertex 206.75570223655052 97.34405572394148 12.841363761019037
    vertex 206.75571721296578 110.06825047236862 0.819268301555375
  endloop
endfacet
facet normal -0.9999999999967759 1.90161393948751e-06 1.6828599387693877e-06
  outer loop
    vertex 206.75571721296578 110.06825047236862 0.819268301555375
    vertex 206.75570223655052 97.34405572394148 12.841363761019037
    vertex 206.75571469511027 98.84406768215302 12.841351803176089
  endloop
endfacet
facet normal -0.9999999999967759 1.90161393948751e-06 1.6828599387693877e-06
  outer loop
    vertex 206.75571721296578 110.06825047236862 0.819268301555375
    vertex 206.75571469511027 98.84406768215302 12.841351803176089
    vertex 206.75571721292525 106.07360700765551 12.841294172611171
  endloop
endfacet
facet normal -0.9999999999967759 1.90161393948751e-06 1.6828599387693877e-06
  outer loop
    vertex 206.75571721296578 110.06825047236862 0.819268301555375
    vertex 206.75571721292525 106.07360700765551 12.841294172611171
    vertex 206.75571721292525 106.6738674777552 12.246269524531778
  endloop
endfacet
facet normal -0.9999999999967759 1.90161393948751e-06 1.6828599387693877e-06
  outer loop
    vertex 206.75571721296578 110.06825047236862 0.819268301555375
    vertex 206.75571721292525 106.6738674777552 12.246269524531778
    vertex 206.75571721292525 107.23243061854251 11.61193981409735
  endloop
endfacet
facet normal -0.9999999999967759 1.90161393948751e-06 1.6828599387693877e-06
  outer loop
    vertex 206.75571721296578 110.06825047236862 0.819268301555375
    vertex 206.75571721292525 107.23243061854251 11.61193981409735
    vertex 206.75571721292525 107.7467290199924 10.94122070891831
  endloop
endfacet
facet normal -0.9999999999967759 1.90161393948751e-06 1.6828599387693877e-06
  outer loop
    vertex 206.75571721296578 110.06825047236862 0.819268301555375
    vertex 206.75571721292525 107.7467290199924 10.94122070891831
    vertex 206.75571721292525 108.21439873293687 10.237195138799864
  endloop
endfacet
facet normal -0.9999999999967759 1.90161393948751e-06 1.6828599387693877e-06
  outer loop
    vertex 206.75571721296578 110.06825047236862 0.819268301555375
    vertex 206.75571721292525 108.21439873293687 10.237195138799864
    vertex 206.75571721292525 108.63329013484982 9.503099125195778
  endloop
endfacet
facet normal -0.9999999999967759 1.90161393948751e-06 1.6828599387693877e-06
  outer loop
    vertex 206.75571721296578 110.06825047236862 0.819268301555375
    vertex 206.75571721292525 108.63329013484982 9.503099125195778
    vertex 206.75571721292525 109.0014778104897 8.742306906983032
  endloop
endfacet
facet normal -0.9999999999967759 1.90161393948751e-06 1.6828599387693877e-06
  outer loop
    vertex 206.75571721296578 110.06825047236862 0.819268301555375
    vertex 206.75571721292525 109.0014778104897 8.742306906983032
    vertex 206.75571721292525 109.31726940198185 7.95831543092672
  endloop
endfacet
facet normal -0.9999999999967759 1.90161393948751e-06 1.6828599387693877e-06
  outer loop
    vertex 206.75571721296578 110.06825047236862 0.819268301555375
    vertex 206.75571721292525 109.31726940198185 7.95831543092672
    vertex 206.75571721292525 109.57921338766529 7.154728278123533
  endloop
endfacet
facet normal -0.9999999999967759 1.90161393948751e-06 1.6828599387693877e-06
  outer loop
    vertex 206.75571721296578 110.06825047236862 0.819268301555375
    vertex 206.75571721292525 109.57921338766529 7.154728278123533
    vertex 206.75571721292525 109.78610575394562 6.335239100305405
  endloop
endfacet
facet normal -0.9999999999967759 1.90161393948751e-06 1.6828599387693877e-06
  outer loop
    vertex 206.75571721296578 110.06825047236862 0.819268301555375
    vertex 206.75571721292525 109.78610575394562 6.335239100305405
    vertex 206.75571721292525 109.93699552948809 5.503614642137648
  endloop
endfacet
facet normal -0.9999999999967759 1.90161393948751e-06 1.6828599387693877e-06
  outer loop
    vertex 206.75571721296578 110.06825047236862 0.819268301555375
    vertex 206.75571721292525 109.93699552948809 5.503614642137648
    vertex 206.75571721292525 110.03118915631505 4.663677427548782
  endloop
endfacet
facet normal -0.9999999999967759 1.90161393948751e-06 1.6828599387693877e-06
  outer loop
    vertex 206.75571721296578 110.06825047236862 0.819268301555375
    vertex 206.75571721292525 110.03118915631505 4.663677427548782
    vertex 206.75571721296578 110.06825047236862 3.8192683015553586
  endloop
endfacet
facet normal -3.0667544760638176e-06 0.8329669150738339 0.5533227976353182
  outer loop
    vertex 209.7557200140534 108.97985753105819 10.70808279547677
    vertex 211.75572001404186 109.4475339955974 10.004058146436982
    vertex 209.7557200140534 109.44752724400256 10.004057225358313
  endloop
endfacet
facet normal -3.0667544760638176e-06 0.8329669150738339 0.5533227976353182
  outer loop
    vertex 211.75572001404186 109.4475339955974 10.004058146436982
    vertex 209.7557200140534 108.97985753105819 10.70808279547677
    vertex 211.75572001404186 108.97986428265303 10.70808371655544
  endloop
endfacet
facet normal -3.3858301770740666e-06 0.9695775286514342 0.24478442745140777
  outer loop
    vertex 209.7557200140534 110.81234189873108 6.921590364681987
    vertex 211.75572001404186 111.01924101660614 6.102102107942524
    vertex 209.7557200140534 111.0192342650113 6.1021011868638535
  endloop
endfacet
facet normal -3.3858301770740666e-06 0.9695775286514342 0.24478442745140777
  outer loop
    vertex 211.75572001404186 111.01924101660614 6.102102107942524
    vertex 209.7557200140534 110.81234189873108 6.921590364681987
    vertex 211.75572001404186 110.81234865032592 6.921591285760657
  endloop
endfacet
facet normal 2.3295340342910887e-06 0.950763068949554 0.3099186775852646
  outer loop
    vertex 206.75571721292525 109.57921338766529 7.154728278123533
    vertex 209.75571721291556 109.31726369714002 7.958310382346907
    vertex 209.75571721291556 109.57920768282347 7.154723229543709
  endloop
endfacet
facet normal 2.3295340342910887e-06 0.950763068949554 0.3099186775852646
  outer loop
    vertex 209.75571721291556 109.31726369714002 7.958310382346907
    vertex 206.75571721292525 109.57921338766529 7.154728278123533
    vertex 206.75571721292525 109.31726940198185 7.95831543092672
  endloop
endfacet
endsolid MULTIMODALZERO_V9_CLOSER
